<?xml version="1.0" encoding="utf-8"?>
<!-- Generator: Adobe Illustrator 25.0.1, SVG Export Plug-In . SVG Version: 6.00 Build 0)  -->
<svg version="1.1" id="Layer_1" xmlns="http://www.w3.org/2000/svg" xmlns:xlink="http://www.w3.org/1999/xlink" x="0px" y="0px"
	 viewBox="0 0 1072.2 922" style="enable-background:new 0 0 1072.2 922;" xml:space="preserve">
<style type="text/css">
	.st0{fill:#C4C4C4;filter:url(#Adobe_OpacityMaskFilter);}
	.st1{mask:url(#mask0_1_);}
	.st2{fill:#FFFFFF;}
	.st3{fill:#161616;}
	.st4{fill:#E57D6C;}
	.st5{fill:#C23C47;}
	.st6{fill:#D5D3E5;}
	.st7{fill:#F2F1F8;}
	.st8{fill:#FDF6F6;}
	.st9{fill:#FDF6E5;}
	.st10{fill:#380068;}
	.st11{fill:#FFFCFC;}
	.st12{fill:url(#SVGID_1_);}
	.st13{fill:#0F242C;}
	.st14{fill:#ADE0BA;}
	.st15{fill:#D82E83;}
	.st16{fill:#870452;}
	.st17{fill:#108980;}
	.st18{fill:url(#SVGID_2_);}
	.st19{fill:url(#SVGID_3_);}
	.st20{fill:#34007A;}
	.st21{fill:#F99D5F;}
	.st22{fill:#220058;}
	.st23{fill:#6300D0;}
	.st24{fill:#BB1D00;}
	.st25{fill:#490099;}
	.st26{fill:url(#SVGID_4_);}
	.st27{fill:#F1DC54;}
	.st28{fill:#D7A13A;}
	.st29{fill:url(#SVGID_5_);}
	.st30{fill:url(#SVGID_6_);}
	.st31{fill:#6D6D6D;}
	.st32{fill:#303030;}
	.st33{fill:url(#SVGID_7_);}
	.st34{fill:#D57A17;}
	.st35{fill:#494949;}
	.st36{fill:url(#SVGID_8_);}
	.st37{fill:url(#SVGID_9_);}
	.st38{fill:url(#SVGID_10_);}
	.st39{fill:#1D58BF;}
	.st40{fill:#4F7EE8;}
	.st41{fill:#060100;}
	.st42{fill:#BB350D;}
	.st43{fill:#FF6B6B;}
	.st44{fill:#CA491A;}
	.st45{fill:none;stroke:#000000;stroke-width:1.2452;stroke-linecap:round;stroke-miterlimit:10;}
	.st46{fill:#D84922;}
	.st47{fill:url(#SVGID_11_);}
</style>
<defs>
	<filter id="Adobe_OpacityMaskFilter" filterUnits="userSpaceOnUse" x="0" y="0" width="1072.2" height="1175.1">
		<feColorMatrix  type="matrix" values="1 0 0 0 0  0 1 0 0 0  0 0 1 0 0  0 0 0 1 0"/>
	</filter>
</defs>
<mask maskUnits="userSpaceOnUse" x="0" y="0" width="1072.2" height="1175.1" id="mask0_1_">
	<rect x="-170.3" y="0" class="st0" width="1366" height="922"/>
</mask>
<g class="st1">
	<path class="st2" d="M668.1,215.8c1,1,17.7,40.6,19.8,48.9c2.1,8.3,17.7,104,18.7,109.2c1,5.2,20.4,75.1,20.4,75.1l0.4,36.2
		l-78-65.5c0,0-41.6-100.9-42.6-103s-11.4-82.2-11.4-84.2C595.3,230.3,668.1,215.8,668.1,215.8z"/>
	<path class="st3" d="M661.2,215.8c1,1,17.7,40.6,19.8,48.9c2.1,8.3,17.7,104,18.7,109.2c1,5.2,20.4,75.1,20.4,75.1l0.4,36.2
		l-78-65.5c0,0-41.6-100.9-42.6-103s-11.4-82.2-11.4-84.2C588.4,230.3,661.2,215.8,661.2,215.8z"/>
	<path class="st4" d="M738.2,535.6l-37.9-42.2l-73.8-54.7L579.6,404l-23-69.3l-6.1-18.4l123.8,11.8l13.7,69.5l8.5,43.3L738.2,535.6z
		"/>
	<path class="st5" d="M688,397.6c-12.7,3-29,6-38.7,4.3c-17.7-3.1-70.7-33.5-70.7-33.5l-22-33.7l-6.1-18.4L674.3,328L688,397.6z"/>
	<path class="st2" d="M744,539.2l-43.7-45.8l-73.8-54.7l65.5,11.1l4.5-8.9L744,539.2z"/>
	<path class="st4" d="M682.6,374.9c-4.2,2.1-40.9,18.5-45.9,15s-58.1-30.6-62.2-33.7c-2.5-1.9-13.3-18.3-22.6-34.8
		c-6.4-11.4-12.1-22.9-13.8-29.7c-4.2-16.6-12.5-40.6-1-53c11.4-12.5,73.8-58.2,115.4-29.1c1.7,1.2,27,58.2,27,65.5
		c0,2.1,0.6,11.4,1.4,23.5C682.8,327.7,685.6,373.4,682.6,374.9z"/>
	<path class="st3" d="M682.6,374.9c-4.2,2.1-40.9,18.5-45.9,15s-58.1-30.6-62.2-33.7c-2.5-1.9-13.3-18.3-22.6-34.8
		c0.2-0.8,0.4-1.5,0.6-1.9c5.3,4.1,33.6,24.4,34.5,25.3c1,1,22.9,20.8,22.9,19.8s-2.1-25-1-26c1-1,19.8-29.1,19.8-29.1l3.1,2.1
		l-14.6,29.5l3.2,18.4c0,0,1,10.4,2.1,9.4c1-1,2.2-9.9,2.2-9.9l3,1.6l1,4.2l1-3.1c0,0,13.5,1,13.5,0s2.1,3.1,2.1,3.1l1-4.2l12.5-3.1
		l3.1,2.1v-4.2l6.2-4.2l3.1,4.2l-12.5-34.3l-22.9-10.4l-1-2.1l26,6.2l17.7,27l-2.1-17.7h2.1v-10.4l1-3.1l1.4-11.9
		C682.8,327.7,685.6,373.4,682.6,374.9z"/>
	<path class="st2" d="M624.3,432.1l-5,26.1l-32.4-2.2l-55.1-110.2l-8.3-74.9c0,0,29.1-30.2,39.5-34.3c3.1-1.2-12.5,54.1-11.4,61.4
		c1,7.3,25,75.9,25,75.9L624.3,432.1z"/>
	<path class="st2" d="M523.5,271.9c0,0-5.7-51.1-3.1-58.2c7.3-19.8,24.1-25.5,45.8-35.4c22.9-10.4,64.5-12.5,71.8-7.3
		s32.2,47.8,32.2,47.8S562,230.3,523.5,271.9z"/>
	<path class="st6" d="M546.3,268.4l5.6-21.2l-7.8-49c0,0-20.8,13-24.3,37.7l6.5,60.7l7.8,141.7l29.9,13.9l-10.8-108.3l-8.7-24.3
		c0,0-0.9-28.6,0-29.9C545.4,288.4,546.3,268.4,546.3,268.4z"/>
	<path class="st6" d="M551.9,247.1c0,0,38.1-16.9,63.3-23.4c0,0-49.8,10-64.1,19.9l-3.5,9.1L551.9,247.1z"/>
	<path class="st2" d="M836,925.6c0,1.2-103.4,7-186.2,11.4c-55.5,2.9-101.8,5.3-101.8,5.3l7-156.9l15.9-356.9l165.4,101.9l19.1-27.3
		c0,0,66.1,102.2,77.6,130.2C844.3,661.4,836,923.5,836,925.6z"/>
	<path class="st7" d="M703.4,749.3c0,26-9.4,97.8-16.6,109.2c-5.2,8.1-23.9,47.6-37,78.4c-55.5,2.9-101.8,5.3-101.8,5.3l7-156.9
		c45-113.2,96.5-237.8,96.5-237.8c4.2,2.1,63.4,121.7,68.6,130C725.3,685.8,703.4,723.3,703.4,749.3z"/>
	<path class="st2" d="M710.7,655.7c-0.1,3.5-2.7,12-7,24.2C678.4,752.1,593,950.5,592.1,953.1c-0.3,0.9-15.7-1.5-37.2-5.3
		c-51-9-136.5-25.8-138.5-23.9c2-4.2,83.9-195.9,113.4-264.8c6.4-15.1,10.4-24.3,10.4-24.3s-31.5-103.2-33.6-109.4
		c-2.1-6.2-50.3-95.9-50.3-95.9s-41-77.5-45.1-83.8c-4.2-6.2-44.7-216.3-44.7-216.3l26-9.4l52-1l38.5,19.8c0,0,36.4,156,37.4,162.2
		c0.9,5.1,47,69.7,63.1,92.2c3.4,4.8,5.5,7.6,5.5,7.6l57.2,103C646.2,503.8,711.7,631.8,710.7,655.7z"/>
	<path class="st2" d="M983.2,354.1c0,2.1-13.5,69.7-15.6,72.8c-2.1,3.1-52,48.9-63.4,60.3s-80.1,64.5-81.1,67.6
		c0,0,36.4,72.8,40.6,79c4.2,6.2,28.1,289.1,28.1,289.1s-46.5,6.5-65.7,10.8c-5,1.1-8.2,2.1-8.2,2.7c-0.1-3.5-2.1-260-2.1-260
		l-1-5.2c0,0-11.7-23.5-25.5-51.4c-19.8-40.2-43.7-89.6-43.1-92.1c1-4.2-29.1-94.6-29.1-94.6l1.6-0.3l31.7-6.9
		c0,0,14.9-9.7,34.7-22.7c38.5-25.2,95.6-62.6,98.4-64.7c4.2-3.1,85.3-2.1,89.4,1C976.9,342.6,983.2,352,983.2,354.1z"/>
	<path class="st6" d="M593.2,456c1,1,116.5,53,147.7,81.1c0,0-33.3-59.3-51-80.1c-17.7-20.8-109.2-53-110.2-53S593.2,456,593.2,456z
		"/>
	<path class="st6" d="M710.7,655.7c-0.1,3.5-2.7,12-7,24.2c-24.2-33.4-79.8-109.7-81.4-110.5c-2-1-45.6-162.8-45.8-163.3
		c0,0,3.1-6.1,7-12.8c3.4,4.8,27.1,23,27.1,23l35.7,87.6C646.2,503.8,711.7,631.8,710.7,655.7z"/>
	<path class="st6" d="M651.4,467.4c2.1,5.2,27,81.1,55.1,115.4c28.1,34.3,77,127.9,81.1,139.4c4.2,11.4-9.4-61.4-22.9-86.3
		c-13.5-25-63.4-126.9-65.5-130C697.2,502.8,651.4,467.4,651.4,467.4z"/>
	<path class="st6" d="M746.1,527.8c1-4.2-30.7-95.2-30.7-95.2l3.4-12.9C736.2,453.8,770,534,770,537.1c0,2.5,10.6,46.9,19.2,82.7
		C769.4,579.7,745.4,530.2,746.1,527.8z"/>
	<path class="st6" d="M558.8,579.8l-3.9,368.1c-51-9-136.5-25.8-138.5-23.9C418.4,919.7,558.8,579.8,558.8,579.8z"/>
	<path class="st3" d="M482.9,138.8l-18.2,6.5L433,156.5l-40.2-16.3l-26.4-10.8l22.2-7.9l3.8-1.4l52-1.1l17.3,8.9L482.9,138.8z"/>
	<path class="st4" d="M464.7,145.3L433,156.5l-40.2-16.3l-4.2-18.7l-4.5-20.1c0,0-57.2-9.4-61.4-13.5c-4.2-4.2-19.8-39.5-16.6-43.7
		C309.2,40,335.2,14,337.3,14c2.1,0,6.2,1,6.2,1s22.9-17.7,27-14.6c1.9,1.4,59.3,19.8,59.3,28.1s-1,27-1,27s16.6,1,20.8,12.5
		c2.3,6.2,7.6,34.9,12,59.8C462.7,134,463.8,140,464.7,145.3z"/>
	<path class="st8" d="M590.3,305.3c17.6-6.5,28-22.3,23.2-35.4c-4.8-13.1-23-18.4-40.6-11.9s-28,22.3-23.2,35.4
		C554.5,306.5,572.6,311.8,590.3,305.3z"/>
	<path class="st3" d="M588.4,301.2c14.6-5.4,23.2-18.5,19.2-29.4c-4-10.8-19.1-15.3-33.7-9.9c-14.6,5.4-23.2,18.5-19.2,29.4
		C558.7,302.1,573.8,306.6,588.4,301.2z"/>
	<path class="st9" d="M660.8,282.5c17.8-4.5,29.5-18.9,26.2-32.2c-3.4-13.2-20.5-20.3-38.4-15.7c-17.8,4.5-29.5,18.9-26.2,32.2
		C625.8,280,643,287,660.8,282.5z"/>
	<path class="st3" d="M659.4,278.2c14.8-3.8,24.5-15.7,21.7-26.6c-2.8-10.9-17-16.7-31.8-13c-14.8,3.8-24.5,15.7-21.7,26.6
		C630.4,276.1,644.7,281.9,659.4,278.2z"/>
	<path class="st3" d="M653.5,336.4c-2.1,1-23.9,6.2-26,5.2c-2.1-1-4.2-6.2-4.2-6.2s0.6-1.2,1.5-3.1c2.5-5.1,7.7-14.9,9.9-15.6
		c2.3-0.8,11.2,3.5,16.3,6.2c1.8,1,3.2,1.8,3.5,2.1C655.6,326,655.6,335.4,653.5,336.4z"/>
	<path class="st2" d="M651.4,323.9c0,0.8-18.6,6.1-26.6,8.4c2.5-5.1,7.7-14.9,9.9-15.6c2.3-0.8,11.2,3.5,16.3,6.2
		C651.3,323.4,651.4,323.7,651.4,323.9z"/>
	<path class="st10" d="M891.7,923c0,0-46.5,6.5-65.7,10.8l37.6-299.9C867.7,640.1,891.7,923,891.7,923z"/>
	<path class="st6" d="M983.2,354.1l-32.2,5.2l-84.2,56.2l-54.1,26l-13.5-62.4c38.5-25.2,80.5-42.7,83.2-44.7
		c4.2-3.1,86.3,2.1,90.5,5.2C976.9,342.6,983.2,352,983.2,354.1z"/>
	<path class="st4" d="M803.3,380.1l-11.4-2.1l-27,1l-17.7,36.4l-9.4,5.2l8.3,21.8l26,7.3c0,0,13.5,25,15.6,23.9
		c2.1-1,34.3-25,34.3-25l7.3-11.4l29.1-8.3l19.8-35.4c0,0-53-16.6-61.4-15.6L803.3,380.1z"/>
	<path class="st5" d="M823,383.2c2.1,1,12.5,15.6,12.5,15.6v29.1l42.6-34.3l-46.8-13.5L823,383.2z"/>
	<path class="st5" d="M826.7,427.4c0,0-5.2-6.2-10.4-6.2c-5.2,0-27,23.9-27,23.9L782,442l-5.2-11.4l3.1-2.1l7.3,12.5l14.6-20.8
		c0,0,11.4-5.2,14.6-5.2S826.7,427.4,826.7,427.4z"/>
	<path class="st5" d="M807.3,389.7l-0.4,11.8l-26,22.8l-22.4,6.7h19.8l32.2-28L807.3,389.7z"/>
	<path class="st5" d="M753.3,417.5c1,0,32.2,9.4,32.2,9.4l-30.2-12.5L753.3,417.5z"/>
	<path class="st5" d="M764.8,407.1l27,13.5l-26-17.6L764.8,407.1z"/>
	<path class="st5" d="M781.4,392.6l12.5,9.3l16.6,2.1l-15.6-4.2l-12.4-9.3L781.4,392.6z"/>
	<path class="st8" d="M594.6,276.2c-1.5-0.7-3.4-0.8-5.5-0.4c2-2.3,2.1-4.9,0.5-7.5c-0.6-1-1.3-1.7-2.2-2.2
		c-0.9-0.5-1.8-0.8-2.9-0.9c-1.1-0.1-2.2,0-3.3,0.3c-1.1,0.2-2.4,0.6-3.8,1.1l-2.7-5.9l-2.9,1.3l2.7,5.8c-0.6,0.3-1.6,0.8-2.9,1.4
		l-2.7-5.8l-3.9,1.8l2.7,5.8c-0.5,0.3-1.4,0.7-2.4,1.1l-5.3,2.4l1.4,2.9l2.7-1.2c1.2-0.6,2.2-0.3,2.9,0.7l3.2,7
		c0.2-0.1,0.3-0.1,0.4-0.2l-0.4,0.2l4.4,9.6c0.2,0.8,0,1.3-0.7,1.7l-2.4,1.1l1.1,4.2l4.5-2.1c0,0,1,0.3,1.6,0c0.6-0.3,1-0.4,1.4-0.6
		l2.8,6.2l3.9-1.8l-2.8-6.1c0.3-0.1,2-0.9,2-0.9l2.8,6.1l3.9-1.8l-2.7-6c1.4-0.7,2.5-1.4,3.5-2c1-0.7,1.9-1.4,2.7-2.2
		c0.8-0.8,1.4-1.6,1.8-2.5c0.4-0.8,0.6-1.8,0.7-2.8c0-1-0.1-2.1-0.5-3.3C597.2,278.4,596.1,276.9,594.6,276.2z M573.2,272.8
		c0.1-0.1,0.4-0.2,0.9-0.4c0.5-0.2,0.9-0.4,1.3-0.6c0.3-0.2,0.8-0.4,1.4-0.6c0.6-0.2,1.1-0.4,1.5-0.5c0.4-0.1,0.9-0.2,1.5-0.2
		c0.6,0,1,0,1.4,0.1s0.8,0.3,1.2,0.7c0.4,0.3,0.7,0.7,0.9,1.2c0.2,0.4,0.3,0.9,0.3,1.3s0,0.8-0.2,1.2c-0.2,0.4-0.4,0.7-0.6,1
		c-0.2,0.3-0.5,0.6-0.9,1c-0.4,0.3-0.8,0.6-1.1,0.8c-0.3,0.2-0.7,0.5-1.2,0.7c-0.5,0.3-0.9,0.5-1.2,0.6s-0.6,0.3-1.1,0.5
		c-0.5,0.2-0.7,0.3-0.8,0.4L573.2,272.8z M590.6,284.3c0,0.4,0,0.8-0.1,1.2c-0.1,0.4-0.3,0.8-0.6,1.1c-0.3,0.4-0.6,0.7-0.9,1
		c-0.3,0.3-0.7,0.6-1.2,0.9c-0.5,0.3-0.9,0.6-1.3,0.8c-0.4,0.2-0.8,0.5-1.3,0.7c-0.5,0.3-0.9,0.5-1.2,0.6s-0.7,0.3-1.1,0.5
		c-0.5,0.2-0.8,0.3-0.9,0.4l-3.7-8c0.1-0.1,0.5-0.2,1.1-0.5c0.6-0.3,1.1-0.5,1.5-0.7c0.4-0.2,0.9-0.4,1.7-0.7
		c0.7-0.3,1.3-0.5,1.8-0.6c0.5-0.1,1.1-0.2,1.7-0.3c0.6-0.1,1.2,0,1.7,0.1s0.9,0.4,1.4,0.7c0.4,0.3,0.8,0.8,1,1.3
		C590.4,283.5,590.5,283.9,590.6,284.3z"/>
	<path class="st8" d="M670.8,253.1c-1.5-0.8-3.3-1-5.5-0.7c2.1-2.2,2.4-4.7,1-7.5c-0.5-1-1.2-1.8-2-2.4c-0.8-0.6-1.8-0.9-2.9-1
		c-1.1-0.1-2.2-0.1-3.3,0.1c-1.1,0.2-2.4,0.4-3.8,0.9l-2.3-6l-3,1.2l2.3,5.9c-0.7,0.3-1.6,0.7-3,1.2l-2.3-6l-4,1.5l2.3,6
		c-0.6,0.2-1.4,0.6-2.5,1l-5.5,2.1l1.2,3l2.8-1.1c1.3-0.5,2.2-0.2,2.9,0.9l2.8,7.2c0.2-0.1,0.3-0.1,0.4-0.1l-0.4,0.2l3.8,9.9
		c0.2,0.8-0.1,1.3-0.8,1.6l-2.4,0.9l0.9,4.3l4.6-1.8c0,0,1,0.3,1.6,0.1c0.6-0.2,1-0.4,1.4-0.5l2.5,6.3l4-1.5l-2.4-6.3
		c0.3-0.1,2-0.7,2-0.7l2.4,6.2l4-1.5l-2.4-6.1c1.4-0.6,2.6-1.2,3.6-1.8s2-1.3,2.8-2c0.9-0.8,1.5-1.6,2-2.4s0.7-1.7,0.8-2.8
		c0.1-1,0-2.1-0.3-3.3C673.3,255.5,672.3,253.9,670.8,253.1z M649.7,248.5c0.1,0,0.4-0.2,1-0.4c0.5-0.2,1-0.4,1.3-0.5
		c0.3-0.1,0.8-0.3,1.4-0.5c0.6-0.2,1.1-0.3,1.6-0.4c0.4-0.1,0.9-0.1,1.5-0.1c0.6,0,1,0.1,1.4,0.2c0.4,0.2,0.8,0.4,1.1,0.7
		c0.4,0.3,0.6,0.8,0.9,1.3c0.2,0.5,0.3,0.9,0.3,1.3c0,0.4-0.1,0.8-0.3,1.2c-0.2,0.4-0.4,0.7-0.6,1c-0.2,0.3-0.6,0.6-1,0.9
		c-0.4,0.3-0.8,0.5-1.1,0.7s-0.8,0.4-1.3,0.6s-0.9,0.4-1.2,0.5c-0.3,0.1-0.6,0.3-1.1,0.4c-0.5,0.2-0.8,0.3-0.8,0.3L649.7,248.5z
		 M666.3,261c0,0.4-0.1,0.8-0.2,1.2c-0.1,0.4-0.4,0.7-0.7,1.1s-0.6,0.7-1,1c-0.3,0.3-0.7,0.6-1.2,0.9s-0.9,0.5-1.3,0.7
		c-0.4,0.2-0.8,0.4-1.4,0.6c-0.5,0.2-1,0.4-1.3,0.5c-0.3,0.1-0.7,0.3-1.2,0.4c-0.5,0.2-0.8,0.3-0.9,0.3l-3.2-8.2
		c0.1,0,0.5-0.2,1.1-0.5c0.6-0.3,1.1-0.5,1.6-0.6c0.4-0.2,1-0.3,1.7-0.6c0.7-0.2,1.4-0.4,1.9-0.5s1.1-0.1,1.8-0.2
		c0.7,0,1.2,0,1.7,0.2c0.5,0.2,0.9,0.4,1.3,0.8c0.4,0.4,0.7,0.8,1,1.4C666.2,260.1,666.3,260.6,666.3,261z"/>
	<path class="st11" d="M610.9,273c0,0,6.2-6.2,14.6-5.2l-2.1-5.2c0,0-11.4,2.1-13.5,6.2L610.9,273z"/>
	<path class="st6" d="M707.9,464.3c0,0,64.2,139.4,70.4,170.6c6.2,31.2,11.3,90.1,11.3,90.1s25.1-56,16.2-76.7
		c-8.8-20.7-90.5-215.8-90.5-215.8L707.9,464.3z"/>
	
		<linearGradient id="SVGID_1_" gradientUnits="userSpaceOnUse" x1="682.3194" y1="342.191" x2="772.1024" y2="28.601" gradientTransform="matrix(1 0 0 -1 0 919.8898)">
		<stop  offset="0" style="stop-color:#2620A8;stop-opacity:0"/>
		<stop  offset="1" style="stop-color:#0F2471"/>
	</linearGradient>
	<path class="st12" d="M972.8,339.5c-4.2-3.1-86.3-8.3-90.5-5.2c-2.7,2.1-44.7,19.5-83.2,44.7l0.1,0.3l-7.3-1.3l-27,1l-17.7,36.4
		l-9.4,5.2l2.8,7.3l-16,3.5c-2-4.1-3.9-8-5.6-11.3c-5.5-19.9-11.8-43.4-12.4-46.3c-1-5.2-16.6-100.9-18.7-109.2
		c-0.2-0.9-0.6-2.2-1.2-3.8c1.1-3.5,1.3-7.1,0.4-10.6c-1.3-5.1-4.6-9.2-9.2-12.2c-3.2-7.7-6.3-15.1-8.2-19.2c0.3,0,0.5-0.1,0.5-0.1
		s-25-42.6-32.2-47.8c-7.3-5.2-48.9-3.1-71.8,7.3c-21.6,9.8-38.5,15.6-45.8,35.4c-0.9,2.6-0.8,10.8-0.2,20.4
		c-0.1,0.6-0.2,1.2-0.3,1.8l1.4,12.7c1.1,12.4,2.3,23.4,2.3,23.4l0.1-0.1l2.8,24.8l0.9,16.2c-4.1-6.2-6.7-10.6-6.9-11.8
		c-1-6.2-37.4-162.2-37.4-162.2l-21.4-10.9c-4.4-24.9-9.7-53.6-12-59.8c-4.2-11.4-20.8-12.5-20.8-12.5s1-18.7,1-27
		S372.5,1.9,370.6,0.5c-4.2-3.1-27,14.6-27,14.6s-4.2-1-6.2-1c-2.1,0-28.1,26-31.2,30.2c-3.1,4.2,12.5,39.5,16.6,43.7
		c4.2,4.2,61.4,13.5,61.4,13.5l4.5,20.1l-22.2,8c0,0,40.6,210.1,44.7,216.3c4.2,6.2,45.1,83.8,45.1,83.8s48.2,89.7,50.3,95.9
		c1.8,5.4,25.2,82.2,31.9,103.8c-39,94.5-120.5,291.5-122,294.7c2-1.9,87.6,14.8,138.5,23.9c21.5,3.8,36.9,6.2,37.2,5.3
		c0.1-0.4,2.2-5.3,5.7-13.5c15.3-0.8,33.1-1.7,52-2.7c61.7-3.3,134.6-7.3,168-9.6c0,5.5,0.1,8.8,0.1,9.2c0-0.6,3.2-1.6,8.2-2.7
		c19.2-4.3,65.7-10.8,65.7-10.8S868,640.3,863.8,634.1c-4.2-6.2-40.6-79-40.6-79c1-3.1,69.7-56.2,81.1-67.6
		c11.4-11.4,61.4-57.2,63.4-60.3c2.1-3.1,15.6-70.7,15.6-72.8C983.2,352,976.9,342.6,972.8,339.5z"/>
	<path class="st13" d="M177.7,612.3c-0.6-1.8,58.9,5.1,83.8-8.3c24.9-13.4,60.8-37.8,63.4-37.1c2.6,0.6,51.8,30.1,51.8,30.1l-4.5,96
		c0,0-90.2,39.7-96,40.3C270.5,733.9,202.7,683.3,177.7,612.3z"/>
	<path class="st14" d="M186.9,609.5c9-1,55.5-4.2,63.2-10c8.3-6.4,42.2-40.3,47.4-41.6c5.1-1.3,65.3-10.2,66.6-10.2
		s39.7,17.3,39.7,17.3s-27.6,41.3-28.5,40.2s-38-27.4-38-27.4s-88.9,38.4-92.8,39.7c-3.8,1.3-66.6-5.1-66.6-5.1
		S186.1,609.6,186.9,609.5z"/>
	<path class="st15" d="M463.1,606.5l-21,44.5l-18.6,39.3l-57-101.7l22.8-39.3l2.8-4.9L463.1,606.5z"/>
	<path class="st16" d="M463.1,606.5l-21,44.4c-42.9-25.7-52.5-66.2-52.8-101.6l2.8-4.9L463.1,606.5z"/>
	<path class="st15" d="M513.1,513.7c-3.8,9.6-1.9,21.8-0.6,25.6c0.3,0.8-0.6,4.6-2.1,10c-5.8,20.6-21.2,65.4-22.2,69.9
		c0,0,0,0,0,0.1c-0.4,1.5-1.7,2.6-3.8,3.5c-3.4,1.4-8.8,2-14.6,1.9c-3.9-0.1-7.9-0.4-11.7-1c-12.8-1.9-54.4-32-60.8-42.2
		s-6.4-30.7-6.4-30.7s-28.8-12.2-37.1-21.8c-8.3-9.6-7-53.8,1.3-77.4c8.3-23.7,19.8-42.9,85.1-42.9s80,81.9,80,81.9
		S516.9,504.1,513.1,513.7z"/>
	<path class="st3" d="M484.3,511.8c1.3-0.5-3.2,9.6-9,9c-5.8-0.6-24.3-8.3-28.2-7c-3.9,1.3-7.7,2.6-7.7,2.6s9.6-9.6,14.7-7.7
		C459.3,510.5,479.1,513.7,484.3,511.8z"/>
	<path class="st3" d="M492.8,514.4c-0.1,0-0.2,0.1-0.2,0.2c0.2,1,1.4,4.6,6.3,2.9c5.8-1.9,8.3-5.1,11.5-1.9l-0.8-9.1
		c0,0-6.9-0.5-10.7,3.3C496.6,512.3,493.7,514.6,492.8,514.4z"/>
	<path class="st16" d="M510.3,549.4c-5.8,20.6-21.2,65.4-22.2,69.9c0,0,0,0,0,0.1l-3.8,3.5c-3.4,1.4-8.8,2-14.6,1.9
		c-0.4-9.4-0.8-21.6-0.8-22.7c0-1.9,18.6-48.6,23.7-57c5.1-8.4,13.4-0.6,16,0C509.2,545.2,509.8,546.9,510.3,549.4z"/>
	<path class="st17" d="M486.8,835.6l-17.1,86.3l-11.4,57.5l-9.9,50.1c-40.2,17-106.9,0.8-162.6-18.9c-52.6-18.6-95.3-40.2-96.5-40
		c1.3-3,39.6-148.4,39.6-148.4S218,739,224.4,717.3c6.4-21.8,126.7-121.6,126.7-121.6s16-13.4,17.9-12.8l66.6,80.6l13-25.9
		c0,0,26,31.7,27.9,32.3c1.9,0.6,4.3,31.5,4.3,31.5L486.8,835.6z"/>
	<path class="st3" d="M425.4,656.4l5.8-1.3l7.6,12.2l-28.2-0.6L425.4,656.4z"/>
	<path class="st13" d="M486.8,835.6l-17.1,86.3l-11.4,57.5l-9.9,50.1c-40.2,17-106.9,0.8-162.6-18.9c-0.2-0.8-0.1-1.4,0.1-1.6
		c2.5-1.9,44.5-73.7,44.8-74.2c-0.8,0.8-58.2,51.8-56.3,45.4c1.9-6.4,39.7-75.5,39.7-75.5s-67.8,49.3-67.2,46.7
		c0.6-2.6,104.9-122.9,104.9-122.9l-19.2-97.3c0,0,68.5,82.6,72.8,88.1c-3.7-6.5-52.3-123.2-52.3-123.2s64.6,115.8,64,110.7
		c-0.6-5.1-22.7-99-23-100.4c0.5,1.4,32.9,92.1,34.1,95.4c-0.8-3.1-2.1-72.4-2.1-72.4l18.6-36.5l-8.3-30.7l12.4-24.6
		c0,0,26,31.7,27.9,32.3c1.9,0.6,4.3,31.5,4.3,31.5L486.8,835.6z"/>
	<path class="st13" d="M469.7,921.9l-11.4,57.5c-6.7,8.1-14.2,16.9-22.7,26.4c-37.1,41.6-96-35.8-137.6-101.7
		c-41.6-65.9-35.8-174.7-35.8-174.7s165.1,172.8,165.1,175.3C427.3,904.7,450.8,914,469.7,921.9z"/>
	<path class="st14" d="M381.9,561.7c0,1.9-19.8,25.6-19.8,25.6l40.3,93.4c9.6-8.5,19.2-17.1,28.8-25.6
		c-10.3-11.3-23.2-27.8-33.9-49.9C389.4,589,384.7,574,381.9,561.7z"/>
	<path class="st3" d="M327.5,495.8c0.6,0,0.6-1.3,2.1-2.3c2.5-1.7,6.1-0.7,8.8,0.3c0,0-8.3,3.8-6.4,11.5l2.6,7c0,0-7,3.8-6.4,12.2
		l3.8-3.2c0,0-5.1,6.4,0,14.7s17.9,15.4,17.9,15.4l-8.3-0.6c0,0,7,9.6,15.4,12.2c8.4,2.6,31.4-1.9,31.4-1.9l1.9-23l10.2,3.2
		c0,0,13.4-30.7,10.2-36.5c-3.2-5.8,14.1-7.7,12.2-17.3c-1.9-9.6-3.2-17.9-3.2-17.9s3.2,5.8,11.5,6.4c0,0-2.6-5.1-2.6-9
		c0,0,12.8,15.4,33.3,19.2s23.7-4.5,23.7-4.5l17.3-3.8c0,0,0.6,2.6-2.6,7.7l9-3.2l-1.9,16l4.4,18c24.6-7.2,32.9-16.7,35.3-25.1
		c1.5-5.1,0.6-9.4-3.8-34.6l-2.6,6.4c-2.8-8.1-3.8-17-8.3-24.3c-6.7-10.8-9-9-13.4-13.4c0,0,5.1-1.3,9,0c0,0-10.9-16.6-17.9-16.6
		l7-1.9c0,0-19.8-19.2-25.6-17.3l3.2-7l-11.5,5.8l-2.6-11.5c0,0-6.4,10.9-6.4,9c0-1.9-12.2-7-12.2-7s-10.9-12.8-19.2-9.6
		c-8.3,3.2-9.6,6.4-9.6,6.4l7-0.6c0,0-16-5.1-25.6,1.9c-9.6,7-21.8,11.5-21.8,11.5s-21.8-3.8-35.2,9.6c0,0,14.1-3.8,17.9-1.9
		c0,0-21.8,3.2-29.4,19.8l7.7-3.2c0,0-1.3,5.8-7,10.2c-5.8,4.5-17.9,7-20.5,20.5c0,0,5.1-8.3,12.8-8.3c-4.3,3.4-10.9,9.6-14.7,19.2
		C316.5,473.9,324.9,495.9,327.5,495.8z"/>
	<path class="st15" d="M566.8,643c0,0-4.5,7.7-7,11.5c-2.3,3.5-7.9,4.3-8.8,4.5c-0.1,0-0.1,0-0.1,0s-7,22.4-9.6,29.4
		c-2.6,7-13.4,9.6-13.4,9.6s-16,77.4-16,78.7c0,0.9-53.1-22.4-53.1-22.4l20.5-59.5c0,0-5.1-90.2-3.8-94.7s23.7-59.5,23.7-59.5
		s7,3.8,9.6,9c2.6,5.1-2.6,22.4-2.6,22.4l-8.1,24.3l3,9l12.6-10l2.8-2.2c0,0,11.5-1.3,14.1,1.3c1.1,1.1,1.6,5.5,1.8,10.3
		c0.3,6.7,0.1,14.1,0.1,14.1s6.7-1.7,11.6-3c2.5-0.7,4.6-1.3,5-1.5c1.3-0.6,8.3,19.8,8.3,19.8L566.8,643z"/>
	<path class="st17" d="M475.3,699.3c-2.4-1-58.9,126.1-58.9,126.1l-6.4-5.8l-4.5,6.4L287.1,686.5c0,0-59.5,41-35.2,106.2
		c24.3,65.3,161.3,201.6,178.5,190.1c17.3-11.5,114.5-238.7,118.4-245.7C548.9,737.1,515,715.3,475.3,699.3z"/>
	<path class="st13" d="M308.3,707.6l-60,13.3l-18,57.1c0,0,20.2-49.2,25.3-51.3C260.5,724.7,308.3,707.6,308.3,707.6z"/>
	<path class="st3" d="M404.3,834.3c-1.9,3.8-10.2,35.2-10.2,36.5c0,1.3,1.3,32.6,1.3,31.4c0-1.3,5.1-32.6,5.8-33.9
		C401.7,867,404.3,834.3,404.3,834.3z"/>
	<path class="st3" d="M413.2,829.2l5.8,22.4l4.5,41.6l1.3-43.5L413.2,829.2z"/>
	<path class="st3" d="M457.4,751.8c1.9,1.3,31.4,22.4,32.6,24.3c1.3,1.9,33.3,6.4,33.3,6.4l-32.6-9.6L457.4,751.8z"/>
	<path class="st15" d="M399.2,548.3v-41.6c0,0-14.7,2.6-16.6,18.6C380.6,541.2,390.2,545.7,399.2,548.3z"/>
	<path class="st16" d="M530.3,594.4c1.1,1.1,1.6,5.5,1.8,10.3l-9.5-9l-9.2-0.4l2.8-2.2C516.3,593.1,527.8,591.8,530.3,594.4z"/>
	<path class="st16" d="M566.8,643c0,0-4.5,7.7-7,11.5c-2.3,3.5-7.9,4.3-8.8,4.5c-0.5-2.3-0.8-3.8-0.8-3.8l-3.8-37.1l-2.5-2.3
		c2.5-0.7,4.6-1.3,5-1.5c1.3-0.6,8.3,19.8,8.3,19.8L566.8,643z"/>
	
		<linearGradient id="SVGID_2_" gradientUnits="userSpaceOnUse" x1="396.5999" y1="256.2216" x2="392.5389" y2="-97.6984" gradientTransform="matrix(1 0 0 -1 0 919.8898)">
		<stop  offset="0" style="stop-color:#2620A8;stop-opacity:0"/>
		<stop  offset="1" style="stop-color:#0F2471"/>
	</linearGradient>
	<path class="st18" d="M574.9,634c0,0-6.7-20.5-8-19.8c-0.4,0.2-2.4,0.8-4.8,1.5c-4.7,1.3-11.1,3-11.1,3s0.2-7.4-0.1-14.1
		c-0.2-4.8-0.7-9.2-1.7-10.3c-2.5-2.6-13.6-1.3-13.6-1.3l-2.7,2.2l-12.1,10l-2.9-9l7.8-24.3c0,0,3.5-12.1,3.2-19.1
		c0.4-1.2,0.7-2.4,1-3.5c1.4-5.5,2.3-9.2,2-10c-1.2-3.5-2.8-14-0.2-23.1c23.3-7.1,31.1-16.6,33.4-24.9c1.4-5.1,0.6-9.4-3.7-34.6
		l-2.5,6.4c-2.7-8.1-3.7-17-8-24.3c-6.4-10.8-8.7-9-12.9-13.4c0,0,4.9-1.3,8.6,0c0,0-10.5-16.6-17.2-16.6l6.7-1.9
		c0,0-19-19.2-24.6-17.3l3.1-7l-11.1,5.8l-2.5-11.5c0,0-6.2,10.9-6.2,9c0-1.9-11.7-7-11.7-7s-10.5-12.8-18.5-9.6
		c-4.1,1.7-6.4,3.3-7.8,4.5c-5.3-0.9-13.6-1.3-19.3,3.2c-9.2,7-21,11.5-21,11.5s-21-3.8-33.8,9.6c0,0,13.6-3.8,17.2-1.9
		c0,0-21,3.2-28.3,19.8l7.4-3.2c0,0-1.2,5.8-6.7,10.2c-5.6,4.5-17.2,7-19.7,20.5c0,0,4.9-8.3,12.3-8.3c-4.1,3.4-10.5,9.6-14.1,19.2
		c-7.5,19.7,0.6,41.7,3.1,41.6c0.6,0,0.6-1.3,2-2.3c2.4-1.7,5.9-0.7,8.5,0.3c0,0-8,3.8-6.2,11.5l2.5,7c0,0-6.7,3.8-6.2,12.2l3.7-3.2
		c0,0-4.9,6.4,0,14.7c3.6,6,11,11.4,14.8,13.9c-1.7,0.3-3.7,0.6-5.5,0.9h-0.1c-17.4,2.7-39.5,6.3-42.5,7
		c-4.9,1.3-37.5,35.2-45.6,41.6c-7.3,5.9-52.1,9.1-60.7,10c-0.6,0.1-5.9,1.8-8,2.5c-0.6,0-0.9,0.1-0.9,0.3
		c12.3,36.3,35.4,67.3,55.6,88.8c-5.9,6.9-9.8,12.6-10.8,16.1c-6.2,21.8,4.3,104.9,4.3,104.9s-36.9,145.5-38.1,148.4
		c1.2-0.3,42.3,21.4,92.7,40c53.5,19.7,117.6,35.9,156.3,18.9l9.5-50.1l11.1-57.5l3.3-17c32.1-70.4,70.5-163.4,72.8-167.8
		c0,0-9.8-6.6-25-15.1c2.6-13.4,4.7-23.9,4.7-23.9s10.5-2.6,12.9-9.6c2.5-7,9.2-29.4,9.2-29.4s0,0,0.1,0c0.9-0.1,6.2-1,8.5-4.5
		c2.5-3.8,6.7-11.5,6.7-11.5L574.9,634z M498.8,675.1c-0.5-3-1-5.1-1.4-5.2c-1.8-0.6-26.8-32.3-26.8-32.3l-3.4,6.9l9.7-21.3
		c1,0.3,1.8,0.6,2.6,0.7c3.7,0.6,7.5,0.9,11.2,1c1.9,0,3.8,0,5.7-0.2C497.1,640.3,498.1,660.4,498.8,675.1z"/>
	
		<linearGradient id="SVGID_3_" gradientUnits="userSpaceOnUse" x1="584.7552" y1="254.0625" x2="580.6932" y2="-99.8595" gradientTransform="matrix(1 0 0 -1 0 919.8898)">
		<stop  offset="0" style="stop-color:#2620A8;stop-opacity:0"/>
		<stop  offset="1" style="stop-color:#0F2471"/>
	</linearGradient>
	<path class="st19" d="M1010.4,184.3H161.7v737.5h848.7V184.3z"/>
	<path class="st20" d="M148,1015.2c-0.6,1.9-1,3-0.9,3.2c0.1,0.4-5.9-0.6-14.3-2.1c-12.1-2.2-29.1-5.5-39.9-7.7
		c-6.3-1.2-10.5-2.1-10.5-2.1l-2.8-5.4L69,980.5l-14.4-28c0,0,5.3-18,5.7-20.5l28.6-16.4c0,0,16.4,7.4,17.6,7.4
		c0.4,0,8.2,6.3,18,14.3c17.1,14,40.1,33.2,40.1,33.2S151.6,1004.4,148,1015.2z"/>
	<path class="st3" d="M106.6,923.1c0,0-2.5,19.6-2.9,21.3c-0.4,1.6-25.4,15.1-27,16c-1.6,0.8-22.1-7.8-22.1-7.8s5.3-18,5.7-20.5
		l28.6-16.4C89,915.7,105.3,923.1,106.6,923.1z"/>
	<path class="st21" d="M38.2,908.4c0.8,0.8,18.4,29,18.4,29s20.9,3.3,22.5,2.9c1.6-0.4,18.8-12.7,18.8-12.7l7.4-2l7.4-15.1
		c0,0,15.1-13.1,16-13.5c0.9-0.4,6.1-4.5,6.1-4.5s-3.7-5.3-4.5-5.3c-0.8,0-18.4,2-18.4,2l-12.7,11.5c0,0-17.6-26.2-17.6-27
		s-9.8-52.8-10.2-53.6c-0.4-0.8-4.9-4.9-4.9-4.9l-6.1,0.8l5.3,49.1l-2.9,1.6c0,0-17.6-31.1-17.6-32.3s-11.5-17.3-11.5-17.3l-6.5,4.5
		l1.6,7l9.8,24.5l11,23.7L48,878l-23.3-23.2L12,846.2l-3.7,4.5l0.8,3.7l13.1,15.1L41,890.8l-2.9,3.3l-11.5-4.9l-26.2-2L0,891.7
		l3.7,3.3l23.7,5.7L38.2,908.4z"/>
	<path class="st22" d="M179.8,825.7l-39.3,31.5l1.2,35.2l5.3,20.5l3.3,19.6c0,0-7,4.9-6.1,6.1c0.8,1.2,3.3,20.5,3.3,20.5l-18.4,31.5
		l10.6,17.6c0,0,76.1-1.6,76.1-3.3c0-1.6-1.6-97.8-2-99.8C213.3,903,179.8,825.7,179.8,825.7z"/>
	<path class="st3" d="M148.3,822.8l-6.3,36.9l9.2,28.6c0,0,10.2,20,10.2,21.7c0,1.6,4.9,34.8,4.9,34.8l12.3,34.8l1.2-179.6
		L148.3,822.8z"/>
	<path class="st2" d="M171.2,829c-0.8-0.3-8.9-0.2-13.8-0.1c-2.2,0-3.8,0.1-3.8,0.1s-13.5,11-13.5,12.3c0,1.3,2,13.9,2,13.9
		s0.8,6.5,3.7,6.5s14.7,0.8,16,0.4c1.2-0.4,7.4-3.3,8.2-5.7c0.8-2.5,4.1-10.6,4.5-11.9C174.9,843.3,171.2,829,171.2,829z"/>
	<path class="st2" d="M141.3,821.6c-1.2,0-15.5,3.7-15.5,3.7s3.3,11,3.7,11.9c0.4,0.8,16.8,5.7,16.8,5.7l7.4-4.5l3.7-7.8
		c0,0-2.9-6.5-4.5-7.4C151.3,822.3,141.3,821.6,141.3,821.6z"/>
	<path class="st2" d="M149.1,845.8l-13.9,4.5c0,0-4.9,11-6.1,13.1c-1.2,2.1-2,8.2-2,8.2l21.3-1.6l9-11.5L149.1,845.8z"/>
	<path class="st23" d="M235,793c0,0-53.2,55.2-54.4,58.1c-1.2,2.9-6.5,69.1-6.5,72c0,2.9,0.8,72.8,0.8,72.8l177.6-49.1l2-78.1
		l-5.3-11.5l-38.1-47.5L235,793z"/>
	<path class="st3" d="M178.5,876.1c0,0,21.7-6.2,22.5-7c0.8-0.8,29.9-28.6,31.5-29c1.6-0.4,47.5-6.1,49.1-7.8
		c1.6-1.7,31.9-10.6,31.9-10.6s9.8,0,9.4-1.2c-0.4-1.2-19.6-13.5-19.6-13.5s-67.1-0.4-69.1,2c-2,2.5-36,19.2-36,19.2L178.5,876.1z"
		/>
	<path class="st3" d="M350.3,853.4c0,0-23.6-1.5-25.3-1.5s-31.5,11.5-31.5,11.5s-7,14.3-8.2,14.3s-31.9-6.5-34-6.1
		c-2,0.4-22.5,26.2-24.5,28.6c-2,2.5-29,16.8-30.3,20.9c-1.2,4.1-12.5,28.5-13.4,29.6s22-24.7,23.2-24.7c1.2,0,25.4-13.9,26.2-15.1
		c0.8-1.2,16.8-25,16.8-25s33.6-0.4,34.8-0.8c1.2-0.4,16.4-11,16.4-11l46.3-13.5L350.3,853.4z"/>
	<path class="st21" d="M110.2,645.3c0,0-16.4,34.4-16.4,40.1s3.7,36.4,4.5,38.5c0.8,2.1,9.4,40.1,9.8,42.1s8.6,22.1,14.3,30.7
		c3.7,5.5,9.8,9.8,9.8,9.8s2.9,7,5.7,8.2c2.8,1.2,29.5,0.5,34-3.3c2.5-2,9.8-12.7,9.8-12.7s46.6-34.4,47.5-45.8
		c0.8-11.5,18.4-45.4,18.4-45.4s-1.6-40.9-5.3-49.1c-3.7-8.2-27-40.5-29-41.7C211.3,615.4,136.4,613.8,110.2,645.3z"/>
	<path class="st3" d="M94.3,687.4c0,0-5.3,0.8-4.5,0c0.8-0.8,2.5-7,2.5-7l-3.7-0.8l4.5-4.5c0,0-7.8-3.3-6.1-3.7c1.6-0.4,7-3.7,7-3.7
		s-6.1-2.5-4.9-2.9c1.2-0.4,4.9-4.5,4.9-4.5l-4.9-5.3l7.4,0.4l-4.9-7.8l7.4,2.5l-2.5-7.4l5.3,0.8l-3.3-8.2c0,0,6.5,2.9,6.5,1.6
		c0-1.2-2.5-9-2.5-9l7.8,3.3l-1.2-9l7.4,4.1l-0.4-10.2l6.1,7l1.6-10.6c0,0,5.3,6.5,5.3,5.7s1.6-12.3,2-11c0.4,1.2,5.7,7,5.7,7
		l0.8-9.8l4.9,7.8l2.9-10.6l5.3,8.6c0,0,1.6-10.6,2-9.4c0.4,1.2,4.9,8.2,5.3,7.4c0.4-0.8,2-7,2-7s4.1,7.4,4.5,6.5
		c0.4-0.9,4.1-9.8,4.1-9.8l0.8,9c0,0,4.9-6.5,4.9-5.3c0,1.2,3.7,7,3.7,7l3.7-8.6l2.5,7.4l5.3-5.3l1.6,5.3l4.9-5.3v5.7l6.5-3.3
		l-0.8,5.7l7.4-4.1l-1.2,6.1l8.2-4.5l-1.6,7.8l8.6-2.9c0,0-4.5,5.3-2.9,5.3s10.6,0,10.6,0s-5.7,6.5-4.5,6.5c1.2,0,12.3,2.9,12.3,2.9
		l-4.1,6.1c0,0,8.6-0.8,7.8,0.8c-0.8,1.6-4.5,5.7-3.3,5.3c1.2-0.4,8.2-1.2,8.2-1.2l-3.3,4.9v2.9l2.5,2.9l-1.6,5.3l3.9,59.5l-23.5,8
		l-1.6,12.3l-10.6,3.7l-3.7-38.1l-13.5-13.5l4.5-22.9l-11-14.7v4.5l-7-2.5l2.9,3.7c0,0-12.3-1.6-10.6-0.8c1.7,0.8,4.9,4.1,4.9,4.1
		l-11-2.9l3.7,6.1l-9.4-4.9c0,0,1.2,5.3,0,4.9c-1.2-0.4-10.6-4.5-9.8-3.3c0.8,1.2,3.3,6.5,3.3,6.5s-12.7-4.9-11-4.1
		c1.7,0.8,2.9,6.1,2.9,6.1s-13.1-6.1-12.3-4.9c0.8,1.2,2.5,7.4,1.2,5.7c-1.3-1.7-11-7-10.6-6.1c0.4,0.8,0,2.9,0,2.9l-11-9.8
		l-7.8,12.3l-0.4-2.9c0,0-5.3,12.3-4.9,11c0.4-1.2-0.4-4.5-0.4-3.7S94.3,687.4,94.3,687.4z"/>
	<path class="st3" d="M127,696c2,0,11-1.2,11-1.2l6.5-7.4l8.6-4.1l13.9,1.6l-16-6.5l-11.5,5.7L127,696z"/>
	<path class="st3" d="M119.6,704.6c0,1.2-3.7,3.7-3.7,3.7l-11-2l-7.4,2.5l7.8-5.7L119.6,704.6z"/>
	<path class="st3" d="M128.6,757.8c7.4-2,16.2,6.2,17.6,9.4c1.9,4.6,4.9,15.9,1.2,19.2c-2.3,2.1-10.2,0-11.5-2
		c-1.2-2-3.3-8.3-4.5-11c-0.9-2.2-3.6-7.4-4.1-8.6C126.6,762.7,126.9,758.3,128.6,757.8z"/>
	<path class="st21" d="M219.9,710.3c0,0,11.9-13.9,21.7-7.8c9.8,6.1,7.8,30.3,7.8,30.3s-9.4,16.4-11.5,16.8
		c-2,0.4-19.2,2.5-19.2,2.5L219.9,710.3z"/>
	<path class="st24" d="M113.1,742.2c0,0,7.4,5.7,13.1,6.1c5.7,0.4,18.4-8.6,18.4-8.6S124.1,746.3,113.1,742.2z"/>
	<path class="st25" d="M354.1,859.3l-29.5-14.7l-12.7-28.2c0,0-41.7,10.2-43,10.6c-1.2,0.4-38.9,5.3-38.9,5.3s-21.3,25-23.3,26.2
		c-1.4,0.8-11.1,7-17.7,11.8c-3.1,2.3-5.5,4.3-6,5.4c-1.6,3.3-4.5,36.8-4.9,40.5c-0.4,3.7,4.9,37.6,4.9,39.7c0,2-2.9,29.9-2.5,32.7
		c0.4,2.9-8.2,4.9-8.2,4.9c0-1.2-6.1-71.6-6.1-72.8s5.3-60.6,5.3-60.6l-5.2-23.6l-4.2-19c0,0,19.2-25,20-25c0.8,0,43-41.3,45-42.1
		s24.1-1.6,25.4-1.6c1.3,0,20.9,25,20.9,25l22.9,18.8c0,0,8.6,4.9,10.2,4.9c1.6,0,34.4,36,34.4,36L354.1,859.3z"/>
	<path class="st20" d="M267.8,783.6c0,0-25.8,17.6-27.4,19.2c-1.6,1.6-18,26.6-18.8,28.6c-0.8,2-20.9,22.1-20.9,22.1l-11.6,16.7
		c-3.1,2.3-5.5,4.3-6,5.4c-1.6,3.3-4.5,36.8-4.9,40.5c-0.4,3.7,4.9,37.6,4.9,39.7c0,0.7,21.3-14.7,21.3-14.7l-13.9,20.5l39.7-25.4
		l-44.6,40.5l34.8-14.3l-47.9,31.1c0-1.2-6.1-71.6-6.1-72.8s5.3-60.6,5.3-60.6l-5.2-23.6l6.8-20.2l9-9.4l29.9-8.6
		c0,0,19.2-12.7,22.5-12.7S267.8,783.6,267.8,783.6z"/>
	<path class="st3" d="M230.9,795l-17.1,11.9l-26.6,4.5l-17.2,16l24.9-9.5l19.8-3.2L230.9,795z"/>
	<path class="st3" d="M207.6,832.3l-9.8,13.5l-14.7,8.5l-7,19.7l4.5-22.9l14.3-8.2L207.6,832.3z"/>
	
		<linearGradient id="SVGID_4_" gradientUnits="userSpaceOnUse" x1="112.8799" y1="175.7841" x2="246.9039" y2="-83.1559" gradientTransform="matrix(1 0 0 -1 0 919.8898)">
		<stop  offset="0" style="stop-color:#2620A8;stop-opacity:0"/>
		<stop  offset="1" style="stop-color:#0F2471"/>
	</linearGradient>
	<path class="st26" d="M354.5,868.7l-5.3-11.5l-0.5-0.6l5.4,2.7L341,833.5c0,0-32.7-36-34.4-36c-1.7,0-10.2-4.9-10.2-4.9l-22.9-18.8
		c0,0-19.6-25-20.9-25c-0.7,0-7.8,0.3-14.3,0.6c2.6-1.9,11.1-16.6,11.1-16.6s0.8-10.1-1.2-18.9l0.6-0.2l-3.9-59.5l1.6-5.3L244,646
		v-2.9l3.3-4.9c0,0-7,0.8-8.2,1.2c-1.2,0.4,2.5-3.7,3.3-5.3c0.8-1.6-7.8-0.8-7.8-0.8l4.1-6.1c0,0-11-2.9-12.3-2.9
		c-1.3,0,4.5-6.5,4.5-6.5s-9,0-10.6,0s2.9-5.3,2.9-5.3l-8.6,2.9l1.6-7.8l-8.2,4.5l1.2-6.1l-7.4,4.1l0.8-5.7l-6.5,3.3v-5.8l-4.9,5.3
		l-1.6-5.3l-5.3,5.3l-2.5-7.4l-3.7,8.6c0,0-3.7-5.7-3.7-7s-4.9,5.3-4.9,5.3l-0.8-9c0,0-3.7,9-4.1,9.8s-4.5-6.5-4.5-6.5s-1.6,6.1-2,7
		c-0.4,0.9-4.9-6.1-5.3-7.4c-0.4-1.2-2,9.4-2,9.4l-5.3-8.6l-2.9,10.6l-4.9-7.8l-0.8,9.8c0,0-5.3-5.7-5.7-7c-0.4-1.2-2,10.2-2,11
		s-5.3-5.7-5.3-5.7l-1.6,10.6l-6.1-7l0.4,10.2l-7.4-4.1l1.2,9l-7.8-3.3c0,0,2.5,7.8,2.5,9s-6.5-1.6-6.5-1.6l3.3,8.2l-5.3-0.8
		l2.5,7.4l-7.4-2.5l4.9,7.8l-7.4-0.4l4.9,5.3c0,0-3.7,4.1-4.9,4.5c-1.2,0.4,4.9,2.9,4.9,2.9s-5.3,3.3-7,3.7
		c-1.6,0.4,6.1,3.7,6.1,3.7l-4.5,4.5l3.7,0.8c0,0-1.6,6.1-2.5,7c-0.7,0.7,3,0.2,4.2,0c0.5,8.9,3.7,34.5,4.4,36.4
		c0.8,2,9.4,40.1,9.8,42.1s8.6,22.1,14.3,30.7c3.7,5.5,9.8,9.8,9.8,9.8s2.9,7,5.7,8.2c1.8,0.8,12.7,0.8,21.8-0.2l-11,8
		c-3.4-0.5-7.5-0.8-7.5-0.8c-1.2,0-15.5,3.7-15.5,3.7s3.3,11,3.7,11.9c0.2,0.5,6,2.4,10.7,3.9c-0.1,0.1-0.1,0.2-0.1,0.2
		c0,0.6,0.5,3.9,1,7.1l-5.9,1.9c0,0-4.9,11-6.1,13.1s-2,8.2-2,8.2l14-1.1l0.8,21.9l5.3,20.5l3.3,19.6c0,0-7,4.9-6.1,6.1
		c0.6,0.9,2.1,11.8,2.9,17.3c-7.1-5.9-15.3-12.7-22.5-18.6c-9.7-8-17.5-14.3-18-14.3l6.2-12.7c0,0,15.1-13.1,16-13.5
		c0.8-0.4,6.1-4.5,6.1-4.5s-3.7-5.3-4.5-5.3s-18.4,2-18.4,2l-12.7,11.5c0,0-17.6-26.2-17.6-27c0-0.8-9.8-52.8-10.2-53.6
		c-0.4-0.8-4.9-4.9-4.9-4.9l-6.1,0.8l5.3,49.1l-2.9,1.6c0,0-17.6-31.1-17.6-32.3s-11.5-17.2-11.5-17.2l-6.5,4.5l1.6,7l9.8,24.5
		l11,23.7l-1.6,1.2l-23.7-22.9L12,846.2l-3.7,4.5l0.8,3.7l13.1,15.1L41,890.8l-2.9,3.3l-11.5-4.9l-26.2-2L0,891.7l3.7,3.3l23.7,5.7
		l10.6,7.8c0.8,0.8,18.4,29,18.4,29s0.9,0.1,2.2,0.3c-1.7,6.1-4.3,14.8-4.3,14.8l14.4,28l10.6,20.6l2.8,5.4c0,0,4.2,0.8,10.5,2.1
		c10.8,2.1,27.8,5.5,39.9,7.7c8.4,1.5,14.4,2.5,14.3,2.1c-0.1-0.2,0.3-1.4,0.9-3.2s1.5-4.4,2.6-7.3c21-0.5,65.3-1.8,65.3-3
		c0-0.5-0.1-8.7-0.3-20.2l137-37.9L354.5,868.7z"/>
	<path class="st27" d="M796.1,866.6c0-0.4-26.3,101.6-26.3,101.6l-282.3,5.5l-27.8-46.8l12.1-29.6c-2.2,1.8-5.9-1.8-5.9-1.8
		c3.7-4,12.4-23.4,10.2-20.1c-2.2,3.2-8.6,6.5-8.8,6.6c0.2-0.3,8.4-13.2,9.5-14.3c0.4-0.4,2-5.6,4-12.4c4-13.4,9.3-33.1,8.8-34.1
		l212.6-59.7l3.5-1C705.8,760.6,796.1,867,796.1,866.6z"/>
	<path class="st28" d="M575.6,677.6c1.4-1.5-20.1-21.6-21.6-24.9s-15.4-22.7-16.8-20.5s-3.7,16.5-3.3,23c0.4,6.6,3.7,33.3,3.7,33.3
		S572.7,680.9,575.6,677.6z"/>
	<path class="st27" d="M712,767.6l-31.1,71.3l-66.5,39.9L583.7,889l-4-7.3l-5.8,7.3l-4.8-6.2l-0.4,6.2l-9.9,0.4l-4-7.7l-0.4,7.7
		l-14.3-1.5l-1.5-5.1l-5.1,5.5l-16.8-5.1l-1.5-7l-5.1,4l-27-28.9c0,0-0.2-0.5-0.6-1.5c-3.1-8.1-17.6-46.6-16.6-51.9
		c0.7-3.8,10.6-30.6,17.2-48.6c3.5-9.4,6.2-16.5,6.2-16.5s-4.4-19-2.6-22.3c1.8-3.3,24.9-11,24.9-11s39.5-26.7,41.3-28.5
		c1.8-1.8,26,0.7,26,0.7l44.2,9.5c0,0,38.8-29.2,43.9-34c5.1-4.8,13.9-1.8,18.6,0.7c4.8,2.6,6.2,24.5,7.7,28.5s-7.7,48.3-7.7,48.3
		L712,767.6z"/>
	
		<linearGradient id="SVGID_5_" gradientUnits="userSpaceOnUse" x1="576.8833" y1="212.2314" x2="570.4693" y2="108.1784" gradientTransform="matrix(1 0 0 -1 0 919.8898)">
		<stop  offset="0" style="stop-color:#FFFFFF"/>
		<stop  offset="1" style="stop-color:#F1DC54"/>
	</linearGradient>
	<path class="st29" d="M669.9,832.5c-12.8,18-32.2,34.8-49.4,39.2s-102.4,5.8-128.3-13.9c-3.5-2.6-6.7-5.3-9.7-8.1
		c-3.1-8.1-17.6-46.6-16.6-51.9c0.7-3.8,10.6-30.6,17.2-48.6c9.6-8.2,13.8-9.3,15.7-8.1c3.5,2.4-2.9,12.3,1.8,19
		c5.2,7.5,18.1,2.4,41,3.3c29.7,1.1,32.5,10.7,51.9,6.9c17-3.3,19-11.3,34-13.5c17.7-2.6,33.6,5.9,44.3,13.4
		C671.8,770.4,682.7,814.5,669.9,832.5z"/>
	
		<linearGradient id="SVGID_6_" gradientUnits="userSpaceOnUse" x1="484.0838" y1="114.9624" x2="587.8937" y2="114.9624" gradientTransform="matrix(1 0 0 -1 0 919.8898)">
		<stop  offset="0" style="stop-color:#FFFFFF"/>
		<stop  offset="1" style="stop-color:#F4BDAC;stop-opacity:0"/>
	</linearGradient>
	<path class="st30" d="M586.9,804.9c-5.1,24.4-35,48.2-63.3,41.3c-34.4-8.4-47.5-57.8-34.7-73.9c3.5-4.4,8.3-5.5,16.8-7.3
		c27.5-5.9,71.2-2.3,80.4,21.9C589,794.4,587.7,801.2,586.9,804.9z"/>
	<path class="st31" d="M580.4,750c0.7-2.6,4-15,12.1-15c8,0,17.6,11.7,17.6,11.7s-8.4,12.8-13.9,11.3
		C590.6,756.6,580.4,750,580.4,750z"/>
	<path class="st2" d="M512,736.5c0.6,1.7,7.3,6.2,10.6,6.2c3.3,0,9.5-7.7,8.4-12.4c-1.1-4.8-15-10.2-16.5-8
		C513,724.5,510.5,732.1,512,736.5z"/>
	<path class="st3" d="M492.6,772.7c0.3,1.6,7.3,22.3,14.6,23.8s30.3-13.9,30.3-16.5c0-2.6,1.1-10.2,1.1-10.2s-32.2-6.2-34.7-5.5
		C501.4,765,491.9,768.7,492.6,772.7z"/>
	<path class="st3" d="M485.7,787.7l5.9,15.7l8,6.6c0,0,10.6-2.6,12.8-2.6s24.9,11.3,26,11.3c1.1,0,10.6,2.6,10.6,2.6
		s19.4-6.6,17.9-5.9s-20.1,8.8-20.1,8.8l-25.2-8.8l-11,0.4l-11-4l-9.1-7.3L485.7,787.7z"/>
	<path class="st32" d="M498.1,815.8c0,0,9.9,8.4,11.3,8.8c1.5,0.4,21.9,0,21.9,0s-20.5,4.4-21.9,3.7
		C508,827.6,498.1,815.8,498.1,815.8z"/>
	
		<linearGradient id="SVGID_7_" gradientUnits="userSpaceOnUse" x1="657.5" y1="238.6342" x2="677.976" y2="238.6342" gradientTransform="matrix(1 0 0 -1 0 919.8898)">
		<stop  offset="0" style="stop-color:#FFFFFF"/>
		<stop  offset="1" style="stop-color:#F1DC54"/>
	</linearGradient>
	<path class="st33" d="M677.2,665.5l-19.7,22.3c0,0,8.8,1.1,12.4-2.6c0,0-4.8,10.2-6.2,11.7s14.3-6.6,14.3-10.2
		S677.2,665.5,677.2,665.5z"/>
	<path class="st2" d="M580.4,750c0.7-2.6,4-15,12.1-15c8,0,17.6,11.7,17.6,11.7s-8.4,12.8-13.9,11.3
		C590.6,756.6,580.4,750,580.4,750z"/>
	<path class="st3" d="M598.5,755.8c5.1,0,9.3-4.2,9.3-9.3c0-5.1-4.2-9.3-9.3-9.3s-9.3,4.2-9.3,9.3
		C589.2,751.6,593.4,755.8,598.5,755.8z"/>
	<path class="st2" d="M593.3,742.7c1.3,0,2.4-1.1,2.4-2.4c0-1.3-1.1-2.4-2.4-2.4c-1.3,0-2.4,1.1-2.4,2.4
		C590.9,741.6,592,742.7,593.3,742.7z"/>
	<path class="st3" d="M524,739.8c4.6,0,8.4-3.8,8.4-8.4c0-4.6-3.8-8.4-8.4-8.4c-4.6,0-8.4,3.8-8.4,8.4
		C515.6,736,519.4,739.8,524,739.8z"/>
	<path class="st2" d="M519.3,727.7c1.2,0,2.2-1,2.2-2.2c0-1.2-1-2.2-2.2-2.2c-1.2,0-2.2,1-2.2,2.2
		C517.1,726.7,518.1,727.7,519.3,727.7z"/>
	<path class="st34" d="M583.3,711.3c-0.4,0.7-12.4,13.5-12.4,13.5l-2.6,7.7l8.8-10.2L583.3,711.3z"/>
	<path class="st35" d="M598.3,715.6c0,0,5.9,9.9,8,12.1c2.2,2.2,6.2,4,6.2,4L598.3,715.6z"/>
	<path class="st34" d="M565,699.2c0,0-6.2,10.6-6.6,13.5c-0.4,2.9-1.1,8.8-0.4,7.7C558.8,719.3,565,699.2,565,699.2z"/>
	<path class="st34" d="M569.8,704.3c0,0-5.1,8.8-5.1,11c0,2.2,1.5,5.5,1.5,5.5s0-4.8,1.1-6.6C568.3,712.3,569.8,704.3,569.8,704.3z"
		/>
	<path class="st34" d="M548.9,696.3c0.7,0.7,7.7,12.1,6.9,14.3c-0.7,2.2-6.2,11-6.2,11s5.1-9.9,4.4-11.7
		C553.3,708,548.9,696.3,548.9,696.3z"/>
	<path class="st34" d="M542,731.7c0,0-9.9,9.1-12.1,10.2c-2.2,1.1,7.3-2.9,9.5-5.9C541.6,733.2,542,731.7,542,731.7z"/>
	<path class="st34" d="M497.7,858.2c-0.5-0.9-6.9,5.5-6.9,6.6c0,1.1,10.2-2.2,10.2-2.2l-0.9,7.7c0,0,5.3-2.2,5.7-2.6
		c0.4-0.4,3.3,4.8,3.3,4.8l3.7-4C512.7,868.5,498.8,860.1,497.7,858.2z"/>
	<path class="st34" d="M547.1,873.2c0,0.7-1.1,11.7-0.4,11s5.5-8.8,5.5-8.8s5.9,7.3,9.1,9.5c3.2,2.2,2.2-8.8,2.2-8.8L547.1,873.2z"
		/>
	<path class="st34" d="M633.7,865.2c0.7,0.7,5.9,3.3,5.5,2.6c-0.4-0.7-1.5-5.5-1.5-5.5L633.7,865.2z"/>
	<path class="st34" d="M650.9,851.7c-0.8,0.2,4.8,5.1,4.8,4s-1.1-6.9-0.4-6.6c0.7,0.4,7.3,0,7.3,0l-0.7-5.1l8-4l0.7-10.2
		C670.7,829.7,655.7,850.2,650.9,851.7z"/>
	
		<linearGradient id="SVGID_8_" gradientUnits="userSpaceOnUse" x1="590.3499" y1="225.7318" x2="591.0638" y2="184.9928" gradientTransform="matrix(1 0 0 -1 0 919.8898)">
		<stop  offset="0" style="stop-color:#FFFFFF"/>
		<stop  offset="1" style="stop-color:#F1DC54"/>
	</linearGradient>
	<path class="st36" d="M569.8,742c0,0,14.6-10.2,23.4-7.7c8.8,2.6,17.9,3.3,17.9,3.3c2.7-7.9,1-16.3-4.4-21.6
		c-1.1-1.1-8.1-8-16.8-5.1C580.9,713.9,569.8,727.2,569.8,742z"/>
	
		<linearGradient id="SVGID_9_" gradientUnits="userSpaceOnUse" x1="519.1357" y1="230.0589" x2="518.5707" y2="197.8569" gradientTransform="matrix(1 0 0 -1 0 919.8898)">
		<stop  offset="0" style="stop-color:#FFFFFF"/>
		<stop  offset="1" style="stop-color:#F1DC54"/>
	</linearGradient>
	<path class="st37" d="M535.4,727.6c0,0-11.6-8.1-18.5-6.1c-6.9,2-14.2,2.6-14.2,2.6c-2.1-6.2-0.8-12.9,3.5-17.1
		c0.9-0.9,6.4-6.3,13.3-4C526.6,705.4,535.4,716,535.4,727.6z"/>
	
		<linearGradient id="SVGID_10_" gradientUnits="userSpaceOnUse" x1="581.7967" y1="158.1491" x2="671.5797" y2="-103.3889" gradientTransform="matrix(1 0 0 -1 0 919.8898)">
		<stop  offset="0" style="stop-color:#2620A8;stop-opacity:0"/>
		<stop  offset="1" style="stop-color:#0F2471"/>
	</linearGradient>
	<path class="st38" d="M711.9,767.8l0.1-0.2l-26.3-42.8c0,0,9.1-44.2,7.7-48.3c-1.5-4-2.9-26-7.7-28.5c-4.8-2.6-13.5-5.5-18.6-0.7
		c-5.1,4.8-43.9,34-43.9,34l-44.2-9.5c0,0-3.6-0.4-8.1-0.7c-6.1-6.6-15.8-16.1-16.7-18.3c-1.5-3.3-15.4-22.7-16.8-20.5
		c-1.5,2.2-3.7,16.5-3.3,23c0.3,4.6,1.9,18.8,2.9,27.1c-11.6,8-25.2,17.2-25.2,17.2s-23,7.7-24.9,11c-1.8,3.3,2.6,22.3,2.6,22.3
		s-2.6,7-6.2,16.5c-6.7,18-16.5,44.8-17.2,48.6c-1,5.2,13.5,43.7,16.6,51.9c-0.6,1.9-1.1,3.8-1.6,5.6c-2,6.8-3.6,12-4,12.4
		c-1.1,1.1-9.3,14-9.5,14.3c0.2-0.1,6.6-3.3,8.8-6.6c2.2-3.3-6.6,16.1-10.2,20.1c0,0,3.7,3.7,5.9,1.8L460,927.1l27.8,46.8l282.3-5.5
		c0,0,26.3-102,26.3-101.6C796.1,867,732.2,791.7,711.9,767.8z"/>
	<path class="st3" d="M907.2,609.7c0,0-47.9,39.8-48.6,43c-0.6,3.1-5,26.2-5,31.1c0,4.9-5.6,20.5-5.6,24.3
		c0,3.7-13.8,63.6-13.8,63.6s69.2-79.2,70.4-82.9c1.2-3.7,14.9-42.3,14.3-43.6C918.4,644,907.2,609.7,907.2,609.7z"/>
	<path class="st3" d="M837.4,800.3c0,0-13.7,79.1-13.7,80.3c0,1.2-41.5,17.1-56.2,18.6c-0.1,0-0.3,0-0.4,0
		c-14.3,1.2-37.4-30.5-38.6-38.6c-1.2-8.1,5-26.8,7.5-47.9s13.1-46.7,25.5-63.5c10.3-14,19.8-7.3,29.1-4.3c1.9,0.6,3.8,1.1,5.7,1.2
		C807.6,746.7,837.4,800.3,837.4,800.3z"/>
	<path class="st39" d="M750.9,784.7c0,6.2,6.2,51.7,8.1,59.1c1.9,7.5,9.3,33.6,10,43.6c0.1,2-0.5,6.2-1.5,11.8c-0.1,0-0.3,0-0.4,0
		c-14.3,1.2-37.4-30.5-38.6-38.6c-1.2-8.1,5-26.8,7.5-47.9s13.1-46.7,25.5-63.5c10.3-14,19.8-7.3,29.1-4.3l-1.7,2.4
		C788.9,747.3,750.9,778.5,750.9,784.7z"/>
	<path class="st40" d="M1053.5,912.3c-6.8,37.4-11.8,57.9-11.8,57.9l10,82.2c0,0-49.8,9.9-105.8,20.8c-72.1,14.1-154.5,30-154.5,29
		c0-1.9,19.9-90.3,19.9-90.3l8.7-28c0,0-8.7-104.6-9.3-116.4s42.3-160,42.3-160l6.6-9.7l23.3-9l59.1-77.2c2.5,0.6,47.9,38,72.8,64.1
		c24.9,26.1,57.3,76,57.3,76S1060.3,875,1053.5,912.3z"/>
	<path class="st41" d="M1006.2,957.8c1.9-2.5,28.8-38,29.3-38.6l-33.6,72.2l-33,39.8c0,0-12.8,23.4-23,42
		c-72.1,14.1-154.5,30-154.5,29c0-1.9,19.9-90.3,19.9-90.3l8.7-28c0,0-8.7-104.6-9.3-116.4c-0.6-11.8,42.3-160,42.3-160l6.6-9.7
		l44.3-3.3l61.6-11.9l43.2-1.9l-38,33l14.3,59.1l7.5,69.1c0,0,38.6-84.7,43-89c1.6-1.6,4.4,70.4-4.4,84.7
		c-8.8,14.3-30.5,63.5-47.9,84.7s-45.5,52.9-45.5,52.9s56.7-46.7,61-54.2c4.3-7.4,26.9-43.4,27.4-44.2c-0.3,0.8-21.2,53.6-24.3,57.9
		c-3.1,4.4-32.4,44.8-34.9,50.4C964.5,990.8,1004.3,960.3,1006.2,957.8z"/>
	<path class="st39" d="M847.4,792.2c-1.2,4.4-14.9,50.4-14.9,50.4s22.4,88.4,24.3,93.4s-5,54.2-5.6,57.9s-15.6,47.3-15.6,54.8
		s-3.1,41.1-3.1,41.1l25.5-89.7c0,0,13.7-64.1,13.7-65.4c0-1.2-2.5-63.5-2.5-63.5l12.5-53.5l-21.2,13.7l3.1-74.7L847.4,792.2z"/>
	<path class="st40" d="M881.6,680.1c-1.9,1.2-39.8,0.6-47.3,12.5c-7.5,11.8-6.8,19.9-5.6,29.9s-3.7,8.7-5,23.7s3.7,24.3,3.7,24.3
		l5,32.4c0,0,4.4,27.4,4.4,26.2c0-1.2,44.8-135.7,44.8-135.7V680.1L881.6,680.1z"/>
	<path class="st3" d="M772.7,898.4c0,0.9-21.2-2.3-21.2-2.3l-1.9,34.9l16.2,44.2l14.3-19.3c0,0,6.2-30.5,5.6-32.4
		C785.1,921.7,772.7,898.4,772.7,898.4z"/>
	<path class="st42" d="M767.1,895.5l-31.8-1.9l-24.9,7.5l-7.5,16.2v12.5l-2.5,21.8c0,0,6.8,1.2,8.1,0c1.3-1.2,3.7-6.2,3.7-6.2
		l3.1-16.8l10.6-5.6l14.9,16.8l14.3,5.6c0,0,33.6-10,34.2-11.2c0.6-1.2,3.1-11.2,2.5-13.7C791.4,917.9,767.1,895.5,767.1,895.5z"/>
	<path class="st43" d="M735.3,894.3c-7.5,2.5-20.5,13.7-20.5,13.7l-7.5,41.1l11.2,11.8l4.4-1.9l1.2,6.2l18.7,3.1l4.4-4.4l1.9,4.4
		l8.1,1.2l9.3-13.1l6.8-14.9l26.2-11.2l-10.6-33.6L735.3,894.3z"/>
	<path class="st3" d="M997.5,677.6l-55.4,3.1l-23,21.2c0,0-13.1,34.9-13.7,36.1c-0.6,1.2-6.2,57.9-6.2,57.9s15.6-11.2,18.1-16.2
		s8.1-12.5,11.8-16.2c3.7-3.7,6.2-12.5,8.1-14.9c1.7-2.2,12-33.5,14.9-41.3c0.4-1,38.3-10.4,39.2-11L997.5,677.6z"/>
	<path class="st40" d="M962,681.3c-3,0.7-33,34.2-38.6,48.6c-5.6,14.4-13.7,42.3-18.1,50.4c-4.4,8.1-20.5,20.5-26.2,29.9
		c-5.7,9.4-28,33-33.6,38c-5.6,5-42.3,23-44.8,28.6c-2.5,5.6-49.2,19.3-49.2,19.3l16.8,18.7c0,0,10.6,31.8,8.1,33.6
		c-2.5,1.9-10.6,26.8-10.6,26.8l63.5-26.8c0,0,67.9-36.1,71-38.6s67.2-18.1,74.1-31.1c6.8-13.1,44.2-60.4,51.1-67.9
		c6.9-7.5,24.9-32.4,23-48.6c-1.9-16.2-16.2-56-21.2-58.5C1022.4,701.3,1013,668.9,962,681.3z"/>
	<path class="st43" d="M955.1,642.7L881,715.5c0,0-1.7-21.7-3.5-44.4c-2-25.1-4-51.4-4-51.5l67.2-72.8l0.6-1.2l3.4,24.3L955.1,642.7
		z"/>
	<path class="st44" d="M935.5,570c-4.1,16.2-2.4,36.9-7.8,49.7c-6.9,16.5-33.3,44.7-50.2,51.5c-2-25.1-4-51.4-4-51.5l67.2-72.8
		l0.6-1.2L935.5,570z"/>
	<path class="st39" d="M949.5,604.8c2.5,0,33.6,11.2,33.6,11.2l31.1,40.5l5.6,27.4l-45.5,3.7c0,0-61,32.4-61.6,33.6
		s-19.9,26.8-21.8,29.9c-1.9,3.1-30.5,50.4-31.8,52.3c-1.3,1.9-47.7,58.6-47.7,58.6l47-130.8c0,0,45.5-66.6,47.3-66.6
		c1.9,0,34.9-31.8,34.9-31.8L949.5,604.8z"/>
	<path class="st43" d="M948.3,558.2c-2.4,2.7-4.6,6.7-6.6,11.3c-2.6,5.9-4.9,12.7-6.5,18.8c-1.4,5.2-2.2,9.9-2.4,13
		c-0.6,9.3-44.8,48.6-51.1,51.1c-6.2,2.5-29.3,13.1-38.6,5c-2.7-2.3-6.6-11.6-10.8-23.8c-1-3-2.1-6.2-3.1-9.5
		c-0.1-0.3-0.2-0.6-0.3-0.9c-9.3-29.7-18.9-68.5-18.9-74.8c0-5.1,6.3-22.2,12.5-37.7c5.9-14.9,11.8-28.3,11.8-28.3
		c14.7-9.8,21.7-15,27.3-18.2l5.1-1.7l14,1.5c23.4,5.9,65.7,21,65.7,21s10.6,22.4,11.8,29.9C959.5,522.1,956.4,548.8,948.3,558.2z"
		/>
	<path class="st41" d="M948.3,558.7c-2.4,2.7-4.6,6.7-6.6,11.3l-9.5-1.9l-6.8,5l-6.8-43l-24.9-6.8c0,0-1.9-8.1-1.2-9.3
		c0.6-1.2-10-11.8-14.9-14.3c-5-2.5-22.4-1.9-25.5-0.6c-3.1,1.2-16.2,14.9-16.2,14.9s-7.7-1-13-2.8c-4.1-1.4-7.3-4.8-8.2-5.9
		c-1.9-2.5-4.4-14.3-3.1-23c1.2-8.7,17.4-20.5,17.4-20.5l4.4,6.8c1.9-4.4,10.6-10,10.6-10l-3.7,11.2c1.9-4.4,8.1-10,8.1-10l-1.9,10
		l14-8.3l9-0.4l29,1c23.4,5.9,50.8,22.4,50.8,22.4s9.9,22.6,11.1,30C961.3,521.8,956.4,549.4,948.3,558.7z"/>
	<path class="st43" d="M929.6,577.4l6.2-31.8c0,0,18.7-8.7,21.8,4.4c3.1,13.1-2.5,32.4-7.5,35.5c-5,3.1-17.4,5.6-18.1,3.7
		C931.5,587.3,929.6,577.4,929.6,577.4z"/>
	<path class="st41" d="M829.2,624.4c2-2.5,6.3-12.8,6.3-12.8l5.6-5l5.7-1.2h5.6l22.4,1.9l14.3,15.6l-12.5,14.9l-32.4,6.2l-12-10.1
		c4.2,12.2,8.1,21.4,10.8,23.8c9.3,8.1,32.4-2.5,38.6-5c6.2-2.5,50.4-41.7,51.1-51.1c0.2-3.1,1.1-7.7,2.4-13
		c-0.4-4.1-1.8-18.9-1.8-20c0-1.3,4.9-33,4.9-33l-17.4,0.6c-0.6,1.9,0.6,34.9,0.6,34.9l-30.5,41.7L876,602.2l-26.8-1.2l-8.1,1.9
		c0,0-7.5,6.2-8.1,7.5c-0.5,0.9-2.9,9.1-4.2,13.2L829.2,624.4z"/>
	<path class="st3" d="M842.4,620.3c0,0,10.6-4.4,12.5-5c1.9-0.6,18.7-7.5,18.7-7.5s-3,3.1-6.2,6.2c-1.8,1.7-8.8,5-11.8,5.6
		C848.6,621.1,845.7,620.6,842.4,620.3z"/>
	<path class="st44" d="M829.3,596c-0.9-0.1,9.3,5,14.3,5s14.9-8.7,14.9-8.7S839.9,596.7,829.3,596z"/>
	<path class="st45" d="M851.8,559.3c0,0,19.3-6.2,23-6.8c3.7-0.6,10,1.2,10,1.2"/>
	<path class="st41" d="M872.8,559.5c2.4,0,4.4-2,4.4-4.4s-2-4.4-4.4-4.4c-2.4,0-4.4,2-4.4,4.4S870.4,559.5,872.8,559.5z"/>
	<path class="st41" d="M831,567c2,0,3.7-1.7,3.7-3.7c0-2-1.7-3.7-3.7-3.7c-2,0-3.7,1.7-3.7,3.7C827.3,565.3,829,567,831,567z"/>
	<path class="st45" d="M834.9,561.8l-17,3.9L815,568"/>
	<path class="st41" d="M840.6,538.8c0,0.6-0.6,7.5-0.6,7.5l3.1,6.8l19.3-8.7l9.3-1.9l18.7,3.7l-16.2-10l-13.7-0.6l-14.9,4.4
		L840.6,538.8z"/>
	<path class="st41" d="M833.7,541.3l0.6,14.9l-19.5,0.8c0,0-1.9,2.7-2.7,2.2c-0.8-0.5-1.9-10.5-1.9-10.5l5.4-2.5l14.3-1.9
		L833.7,541.3z"/>
	<path class="st32" d="M854.9,581.7c0.6,0,6.8,1.2,8.1,2.5c1.3,1.3,6.2,4.4,6.2,4.4L854.9,581.7z"/>
	<path class="st41" d="M915.3,806.5l19.3,22.4l15.5,36.1l3.8,18.1l-2.5-41.7L940.2,814l-18.1-12.5L915.3,806.5z"/>
	<path class="st41" d="M889.1,833.3c0,0,16.8,18.7,18.7,24.9s3.7,23.7,3.7,23.7l1.9,15.6l6.2-14.3l1.2-26.8l-3.7-16.8l-7.5-14.3
		L889.1,833.3z"/>
	<path class="st41" d="M863,841.4c2.5,1.9,18.1,14.9,18.1,14.9l13.1,19.9l-5.6-24.3l-13.7-11.8L863,841.4z"/>
	<path class="st41" d="M886,807.7c1.9,0,16.8,2.5,19.3,3.7s8.1,4.4,8.1,4.4s-4.4-10.6-6.8-13.1c-2.5-2.5-13.1-3.7-13.1-3.7
		L886,807.7z"/>
	<path class="st41" d="M803.8,878.1c1.9,1.2,14.9,14.9,14.9,14.9l5,24.9l-0.6,24.3c0,0-13.1,9.3-13.1,8.1c0-1.2,7.5-17.1,7.5-17.1
		s1.3-16.6,1.3-18.4C818.8,913,803.8,878.1,803.8,878.1z"/>
	<path class="st41" d="M789.5,934.1l-9.3,30.5c0,0,16.2-25.5,16.2-28s2.5-24.3,2.5-24.3L789.5,934.1z"/>
	<path class="st41" d="M879.2,883.7c-0.6,1.2,0.6,26.2,0,28.6c-0.6,2.5-3.9,10.6-3.9,10.6s10.1-15,10.1-16.9
		c0-1.9,0.6-18.1,0.6-19.9c0-1.9-13.9-22.1-13.9-22.1L879.2,883.7z"/>
	<path class="st41" d="M971.9,698.8c1.9,1.2,44.8,22.4,44.8,22.4s15.9,34.3,15.7,37.1c-0.2,2.8,1.7,28.3,1.7,28.3l-6.8-27.4
		c0,0-16.2-33.6-17.4-35.5C1008.7,721.8,971.9,698.8,971.9,698.8z"/>
	<path class="st43" d="M861.1,765.4l-0.1,0.4l-3.6,10.2l-18.7,1.2l-19-7.5l8.4,7.2l1,0.8l-3.4,9.9l0.8,4.9c0,0-0.2,11.3-0.8,13.2
		s-6.9,6.2-6.9,6.2l-3.7,13.1c0,0-8.8,1-17.2,1c-6.6,0-12.9-0.6-14.6-2.8c-3.7-5-24.3-39.8-24.3-39.8l13.7-26.2l9.3-14.9l17.4-11.8
		l6.4,2.8l3.5,1.5c0,0,4.7,5.4,9,10.1c2.9,3.1,5.6,6,6.6,6.7C827.4,753.5,859.2,764.7,861.1,765.4z"/>
	<path class="st44" d="M861,765.4c0,0.1,0,0.3-0.1,0.4l-3.6,10.2l-18.7,1.2l-19-7.5l8.4,7.2l1,0.8l-3.4,9.9l0.8,4.9
		c0,0-0.2,11.3-0.8,13.2c-0.6,1.9-6.9,6.2-6.9,6.2L815,825c0,0-8.8,1-17.2,1l1-14.7l11.8-19.9l-3.1-1.9c0,0,1.9-17.4,2-17.9
		c0.2-0.5-4.5-13.8-4.5-13.8l13.4-13c2.9,3.1,5.6,6,6.6,6.7C827.4,753.5,859.2,764.7,861,765.4z"/>
	<path class="st44" d="M860.5,765.4l-3.7,10.6l-18.7,1.2l-19-7.5l8.4,7.2c-6.5-3.6-11.5-6.4-11.8-6.6c-0.6-0.6-10-17.4-10-17.4
		s-0.2-9.9-0.4-19.6l3.5,1.5c0,0,11.8,20.5,14.3,22.4C825.6,759.2,860.5,765.4,860.5,765.4z"/>
	<path class="st3" d="M797,764.2c1.2,0,13.1,8.7,14.3,8.7c1.2,0,10,0.8,10,0.8l-7.5-7L797,764.2z"/>
	<path class="st44" d="M813.8,749.8l-7.5,4.4l-10,0.6l-1.3-1.3l-6.2-6.2l3.1-13.7l14.3-8.1c0,0,7.2,5.5,10.7,8.4
		c0.9,0.8,1.6,1.3,1.8,1.6C819.7,736.7,813.8,749.8,813.8,749.8z"/>
	<path class="st46" d="M817,733.9c0,2.7-6.9,10.3-6.9,10.3l-6.2,5l-8.8,4.3l-6.2-6.2l3.1-13.7l14.3-8.1
		C806.3,725.6,813.5,731,817,733.9z"/>
	<path class="st3" d="M782.6,809c1.2,0,17.4,7.5,18.1,6.2c0.6-1.2,9.3-1.2,9.3-1.2s-10-3.7-11.2-3.7
		C797.6,810.3,782.6,809,782.6,809z"/>
	<path class="st3" d="M795.7,786l15.6,6.8l7.6-0.5l-11.3-5.1L795.7,786z"/>
	
		<linearGradient id="SVGID_11_" gradientUnits="userSpaceOnUse" x1="802.6774" y1="168.9158" x2="980.5074" y2="-147.7092" gradientTransform="matrix(1 0 0 -1 0 919.8898)">
		<stop  offset="0" style="stop-color:#2620A8;stop-opacity:0"/>
		<stop  offset="1" style="stop-color:#0F2471"/>
	</linearGradient>
	<path class="st47" d="M1072.2,751.7c0,0-28.8-44.4-53-71.3l-4.9-23.9L983.2,616c0,0-29.6-10.7-33.4-11.2l-2.5-17.9
		c1.1-0.5,2.1-0.9,2.9-1.4c5-3.1,10.6-22.4,7.5-35.5c-0.5-2.1-1.4-3.6-2.6-4.7c3.9-11.6,5.9-25.8,5.1-30.9c-1.2-7.5-11.1-30-11.1-30
		s-27.4-16.5-50.8-22.4l-29-1l-9,0.4l-14,8.3l1.9-10c0,0-6.2,5.6-8.1,10l3.7-11.2c0,0-8.7,5.6-10.6,10l-4.4-6.8
		c0,0-16.2,11.8-17.4,20.5s1.2,20.5,3.1,23c0.8,1.1,4,4.4,8,5.8c-6.1,15.4-12.3,32.2-12.3,37.2c0,1.3,0.4,3.9,1.1,7.5
		c0.2,0.9,0.3,1.8,0.5,2.4c3.1,14.9,10.2,42.6,17.3,65c0,0.1,0,0.2,0.1,0.2c0,0.1-0.1,0.2-0.1,0.3l0.3,0.9c0-0.1,0.1-0.1,0.1-0.2
		c1,3.2,2,6.2,3,9.1c0.1,0.3,0.2,0.5,0.3,0.8l-0.3-0.2c4.2,12.2,8.1,21.4,10.8,23.8c3.4,2.9,8.6,3.4,14.1,2.7
		c-1.4,7.9-3.4,19.2-3.5,23c-8.5,1.7-16.3,4.4-19.3,9.1c-7.5,11.8-6.8,19.9-5.6,29.9s-3.7,8.7-5,23.7c-0.1,1.5-0.2,2.9-0.2,4.3
		c-1.3-1.3-3.2-3.3-5.1-5.4c-0.6-0.6-1.2-1.3-1.8-2c1.3-3.4,2.6-6.9,2.1-7.5c-0.2-0.2-0.8-0.8-1.8-1.6c-3.5-2.9-10.7-8.4-10.7-8.4
		l-14.3,8.1l-0.5,2.3l-8.9,6c-6.8-2.2-13.7-2.7-21.1,7.2c-12.5,16.8-23,42.3-25.5,63.5s-8.7,39.8-7.5,47.9
		c0.9,6.1,14.1,25.3,26.6,34.2l-19.8-1.2l-24.9,7.5l-7.5,16.2v12.5l-2.5,21.8c0,0,6.8,1.2,8.1,0c0.2-0.2,0.3-0.4,0.5-0.6l9.4,10
		l4.4-1.9l1.2,6.2l10,1.7l10.5,208.1l10.6-0.5l-10.6-208.1l2.4-2.4l1.9,4.4l8.1,1.2l4.4-6.2l4.3,11.8l51.6-21.8
		c1.4,17.4,2.5,30.5,2.5,30.5l-8.7,28c0,0-19.9,88.4-19.9,90.3c0,1.1,82.4-14.9,154.5-29c56-11,105.8-20.8,105.8-20.8l-10-82.2
		c0,0,5-20.5,11.8-57.9C1060.2,875,1072.2,751.7,1072.2,751.7z M830.2,787.8c-0.9-1.5-1.9-3.1-2.9-4.8l1.5-4.4L830.2,787.8z
		 M828.6,777.5l-0.5-0.5l-7.8-6.8l7.7,3L828.6,777.5z"/>
</g>
</svg>
