<svg width="94" height="25" viewBox="0 0 94 25" fill="none" xmlns="http://www.w3.org/2000/svg">
<path fill-rule="evenodd" clip-rule="evenodd" d="M41.7134 6.38247C41.1763 4.49783 40.219 2.67413 38.8379 0.935685C38.7791 0.861643 38.8498 0.755004 38.9408 0.780788C40.1579 1.12616 41.2774 1.68207 42.2981 2.44865C42.8441 2.85879 43.3623 3.32991 43.8514 3.86202C44.5733 4.6435 45.2329 5.55803 45.8314 6.60422L45.898 6.71923C46.2111 7.27485 46.5076 7.86795 46.7861 8.49699C46.5353 8.45404 46.279 8.43189 46.0157 8.43189L42.1305 8.43189C42.0584 7.85687 41.9504 7.28597 41.8049 6.71923C41.7758 6.60696 41.7453 6.49469 41.7134 6.38247Z" fill="#CCF49F"/>
<path fill-rule="evenodd" clip-rule="evenodd" d="M39.9051 8.64923C39.6993 6.92356 38.9898 5.25948 37.7694 3.6976C37.711 3.62285 37.7824 3.51616 37.8733 3.54341C39.3823 3.99571 40.6623 4.94051 41.7133 6.38236C41.7452 6.49459 41.7757 6.60685 41.8048 6.71908C41.9503 7.28582 42.0584 7.85667 42.1304 8.43174C41.3267 8.43169 40.6811 8.40118 39.9051 8.64923Z" fill="#CCF49F"/>
<path fill-rule="evenodd" clip-rule="evenodd" d="M49.9475 3.67952C48.6865 5.28711 47.968 7.00308 47.7823 8.78245C47.4664 8.6522 47.1324 8.55522 46.7861 8.49702C46.5076 7.86793 46.2111 7.27488 45.8979 6.71926C45.9076 6.68326 45.9159 6.64721 45.9256 6.6112C46.6967 4.9441 48.1499 3.93798 49.8486 3.52396C49.9388 3.50196 50.0043 3.60714 49.9475 3.67952Z" fill="#CCF49F"/>
<path fill-rule="evenodd" clip-rule="evenodd" d="M48.8478 0.956205C47.4677 2.69796 46.0876 3.90761 45.4267 5.93064C44.939 5.16159 44.4138 4.47156 43.8513 3.86186C45.2568 2.33646 46.894 1.31071 48.7604 0.781059C48.852 0.755085 48.9229 0.862623 48.8633 0.936854C48.8581 0.943336 48.853 0.94977 48.8478 0.956205Z" fill="#BEE9AC"/>
<path fill-rule="evenodd" clip-rule="evenodd" d="M44.4849 3.22314C44.9561 3.74967 45.3994 4.33306 45.8179 4.97318C45.6696 5.27384 45.538 5.59116 45.4271 5.93066C44.9394 5.16162 44.4142 4.47159 43.8517 3.86189C44.0582 3.63745 44.2688 3.42545 44.4849 3.22314Z" fill="#A4DCB1"/>
<path fill-rule="evenodd" clip-rule="evenodd" d="M49.5392 4.23059C48.3739 4.76544 47.4095 5.64533 46.8303 6.89794L46.8026 7.006C47.1088 7.54918 47.397 8.12557 47.6714 8.73806C47.3873 8.63 47.0922 8.54825 46.786 8.49696C46.5075 7.86787 46.211 7.27482 45.8978 6.7192L45.9255 6.61114C46.6965 4.94413 48.1497 3.93797 49.8483 3.52395C49.9381 3.50205 50.0046 3.60675 49.9476 3.67946C49.8048 3.8617 49.6691 4.04508 49.5392 4.23059Z" fill="#B3E59F"/>
<path fill-rule="evenodd" clip-rule="evenodd" d="M43.336 6.71923C43.4801 7.27902 43.5881 7.84438 43.6588 8.41387C43.6602 8.4194 43.6602 8.42636 43.6616 8.43189L42.7014 8.43189L42.1305 8.43189C42.1304 8.4318 42.1304 8.43175 42.1303 8.4317C42.0598 7.8556 41.9503 7.28526 41.8049 6.71928C41.7758 6.60706 41.7454 6.49479 41.7135 6.38257C41.1764 4.49793 40.2191 2.67423 38.838 0.935781C38.7791 0.861597 38.8501 0.755005 38.9412 0.78079C39.5931 0.965398 40.2167 1.21099 40.8129 1.51757C41.9642 3.08886 42.8496 4.83199 43.336 6.71923Z" fill="#B3E59F"/>
<path fill-rule="evenodd" clip-rule="evenodd" d="M38.7939 3.89387C39.9245 5.33634 40.6187 6.86605 40.8819 8.45125C40.8819 8.45404 40.8819 8.45542 40.8833 8.45679C40.7835 8.46649 40.6852 8.47756 40.5854 8.49142C40.426 8.51498 40.2653 8.54824 40.099 8.59257L40.0962 8.59257C40.0949 8.59394 40.0934 8.59394 40.0921 8.59394L40.0907 8.59394C40.0394 8.6078 39.9895 8.62304 39.9383 8.63827C39.9272 8.64244 39.9161 8.64518 39.905 8.64934C39.6992 6.92377 38.9898 5.25974 37.7695 3.6979C37.711 3.62311 37.7825 3.51637 37.8735 3.54367C38.1905 3.63886 38.4974 3.75577 38.7939 3.89387Z" fill="#B3E59F"/>
<path fill-rule="evenodd" clip-rule="evenodd" d="M36.8476 13.9259L36.8476 18.4847C36.8476 19.5051 37.0852 20.4725 37.5085 21.3349C37.6185 21.5588 37.7408 21.7764 37.8752 21.9851C38.3871 22.783 39.0676 23.463 39.8659 23.9739C40.1201 24.1371 40.3866 24.2829 40.6638 24.4095L40.6642 24.4095C41.486 24.7869 42.3988 24.9971 43.3585 24.9971L44.3451 24.9971C45.3047 24.9971 46.2174 24.7869 47.0393 24.4095C47.3165 24.2829 47.5829 24.1372 47.8376 23.9739C48.6359 23.463 49.3165 22.783 49.8283 21.9851C49.9628 21.7764 50.085 21.5588 50.195 21.3349C50.6184 20.4725 50.856 19.505 50.856 18.4848L50.856 13.9259C50.856 13.2523 50.7523 12.6021 50.5607 11.99L50.5607 11.9895L50.5587 11.9841C50.4688 11.6986 50.3598 11.4214 50.2327 11.1545L50.2307 11.1491C49.7854 10.2114 49.1215 9.39496 48.3065 8.76677C48.1119 8.61618 47.908 8.47637 47.6964 8.34877L47.6934 8.34683C47.1185 7.99971 46.4864 7.73865 45.8157 7.58224C45.5727 7.52551 45.3248 7.48251 45.0731 7.45417C44.834 7.42729 44.591 7.41357 44.3451 7.41357L43.3586 7.41357C43.0877 7.41357 42.8203 7.43018 42.5583 7.46297C42.307 7.49424 42.0601 7.5397 41.8181 7.59889C41.1728 7.75681 40.5651 8.01201 40.0102 8.34688C39.7976 8.47547 39.5927 8.61575 39.3972 8.76681C38.5817 9.39501 37.9183 10.2115 37.4729 11.1496C37.3443 11.4199 37.2339 11.7001 37.1429 11.989C37.1434 11.989 37.1434 11.989 37.1429 11.9895C36.9512 12.6016 36.8476 13.2523 36.8476 13.9259Z" fill="#FDE588"/>
<path fill-rule="evenodd" clip-rule="evenodd" d="M39.0311 13.8136L39.0311 17.5548L39.0311 18.3737C39.0311 18.8517 39.0824 19.3187 39.1821 19.7677C39.5936 21.6397 40.8254 23.2401 42.5145 24.1338C43.4192 24.6133 44.4501 24.8848 45.542 24.8848C45.154 24.9583 44.7536 24.9971 44.3448 24.9971C43.6964 24.9971 43.0438 25.022 42.4008 24.9264C39.2693 24.4594 36.8473 21.7408 36.8473 18.4846L36.8473 16.0264L36.8473 15.0509L36.8473 13.9258C36.8473 11.5494 38.136 9.45987 40.0509 8.32227C40.3391 8.15044 40.6425 8.00079 40.9571 7.87471C41.3464 7.71953 41.7552 7.60035 42.1764 7.52139C42.5602 7.45071 42.9551 7.41333 43.3583 7.41333L43.6867 7.41333L44.3449 7.41333C41.812 7.88862 39.7724 9.84791 39.1946 12.3642C39.0865 12.8312 39.0311 13.3161 39.0311 13.8136Z" fill="#FDD76F"/>
<path d="M38.4563 14.2261C38.3869 14.1273 38.256 14.0952 38.1482 14.1497C37.7728 14.3397 37.3896 14.5245 36.9991 14.7027C36.9497 14.7252 36.8984 14.736 36.8471 14.736L36.8471 13.966C37.1353 13.8326 37.4185 13.6962 37.6965 13.5572C37.8238 13.4935 37.8695 13.3341 37.7962 13.212C37.4846 12.6922 37.2722 12.2695 37.1423 11.9894C37.1423 11.9893 37.1423 11.9892 37.1423 11.9891C37.2332 11.7001 37.3438 11.42 37.4723 11.1496C37.5584 11.1877 37.6303 11.2591 37.6664 11.3539C37.6706 11.3653 37.9415 12.0627 38.5864 13.0932C39.3522 12.6774 40.0713 12.2423 40.7353 11.7942C40.8461 11.7194 40.8777 11.5695 40.8041 11.4579C40.2518 10.6214 39.7876 9.73875 39.4171 8.81761C39.4102 8.80001 39.4029 8.78241 39.3965 8.76675C39.5921 8.61568 39.7969 8.47536 40.0096 8.34681C40.0189 8.36101 40.0272 8.37615 40.0345 8.39228C40.0502 8.42701 40.0692 8.47342 40.0976 8.54434C40.3442 9.15744 40.7557 10.0288 41.3988 11.0039C41.4773 11.1229 41.6408 11.15 41.754 11.0635C42.2587 10.6783 42.7213 10.2865 43.1374 9.89204C43.2327 9.80173 43.2391 9.65213 43.1518 9.5541C42.5892 8.92245 42.1489 8.29297 41.8473 7.68389C41.8337 7.65602 41.8239 7.62769 41.8175 7.59883C42.0595 7.53969 42.3064 7.49422 42.5577 7.4629C42.8193 7.96468 43.1811 8.47735 43.6315 8.99209C43.7295 9.10408 43.9051 9.10356 44.0024 8.99095C44.4481 8.47526 44.8087 7.96014 45.0725 7.4541C45.3243 7.48244 45.5721 7.52549 45.8151 7.58217C45.8087 7.6125 45.7985 7.6423 45.7843 7.67164C45.4806 8.28507 45.0424 8.91729 44.486 9.54998C44.3993 9.64867 44.4066 9.79841 44.5026 9.88816C44.9323 10.2902 45.4122 10.6905 45.9372 11.0847C46.0503 11.1695 46.2121 11.1422 46.2901 11.0243C46.941 10.0409 47.3565 9.16161 47.6049 8.54424C47.6332 8.47337 47.6523 8.42691 47.6679 8.39219C47.6753 8.37605 47.6836 8.36091 47.6929 8.34672L47.6958 8.34866L48.3059 8.76665C48.2996 8.78231 48.2922 8.79991 48.2854 8.81751C47.9131 9.74311 47.4461 10.6298 46.8903 11.4698C46.8161 11.5819 46.8483 11.7328 46.9602 11.8072C47.5666 12.211 48.2189 12.6052 48.9107 12.9851C49.0255 13.0482 49.1694 13.0084 49.2373 12.8964C49.3098 12.7768 49.377 12.6624 49.4387 12.554C49.8528 11.8266 50.0327 11.3631 50.0361 11.3539C50.0723 11.2585 50.1436 11.1871 50.2302 11.149L50.2321 11.1544L50.5582 11.984L50.5602 11.9894L50.5602 11.9899C50.43 12.2702 50.2172 12.6933 49.9052 13.2136C49.8322 13.3353 49.8779 13.4943 50.005 13.5576C50.2833 13.6962 50.5669 13.8324 50.8555 13.966L50.8555 14.7359C50.8041 14.7359 50.7528 14.7252 50.7034 14.7027C50.313 14.5245 49.93 14.3401 49.5546 14.1509C49.4462 14.0962 49.3146 14.1287 49.2448 14.2281C48.9022 14.7154 48.4919 15.2464 48.0053 15.7993C47.9088 15.9088 47.8109 16.0173 47.7116 16.1246C47.6001 16.2452 47.6372 16.4394 47.7853 16.5104C48.4474 16.828 49.1617 17.119 49.9317 17.3751C50.0347 17.4093 50.1476 17.3701 50.2089 17.2805C50.4249 16.9645 50.8555 16.4201 50.8555 16.4201L50.8555 17.637C50.8517 17.6426 50.8474 17.6488 50.8435 17.6545C50.8475 17.6557 50.8514 17.6568 50.8555 17.658L50.8555 18.405C50.8237 18.405 50.7909 18.401 50.7587 18.3918C50.6327 18.3572 50.5077 18.3214 50.3834 18.2849C50.0043 18.7695 49.479 19.3678 48.7802 20.0134C48.6564 20.1277 48.5249 20.2454 48.3856 20.3656C48.2439 20.4879 48.2849 20.718 48.4611 20.7812C48.9898 20.9708 49.5425 21.1468 50.1212 21.3055C50.1471 21.3128 50.1715 21.3221 50.1945 21.3348C50.0845 21.5588 49.9623 21.7763 49.8278 21.985C49.0341 21.7638 48.2631 21.5055 47.5168 21.2112C47.4388 21.1805 47.3511 21.1917 47.2835 21.2412C46.679 21.6832 45.979 22.1369 45.1773 22.5753C44.9956 22.6747 45.0117 22.9412 45.2045 23.0169C45.945 23.3079 46.748 23.576 47.6176 23.8085C47.7134 23.8339 47.7902 23.895 47.8372 23.9738C47.5824 24.137 47.316 24.2828 47.0388 24.4094C45.8984 24.084 44.8718 23.6996 43.9507 23.2843C43.8873 23.2557 43.8154 23.2557 43.7519 23.2843C42.8308 23.6996 41.8042 24.084 40.6638 24.4094L40.6633 24.4094C40.3861 24.2828 40.1197 24.137 39.8655 23.9738C39.9124 23.895 39.9891 23.834 40.085 23.8085C40.9547 23.5759 41.7578 23.3078 42.4984 23.0168C42.691 22.9411 42.7072 22.6747 42.5256 22.5754C41.7237 22.1369 41.0235 21.6831 40.4189 21.241C40.3514 21.1916 40.2639 21.1804 40.186 21.2111C39.4397 21.5054 38.6685 21.7638 37.8748 21.985C37.7403 21.7763 37.6181 21.5587 37.5081 21.3348C37.5311 21.3221 37.5555 21.3128 37.5814 21.3055C38.1601 21.1468 38.7127 20.9708 39.2414 20.7812C39.4177 20.718 39.4587 20.4879 39.317 20.3655C39.1777 20.2453 39.0461 20.1277 38.9224 20.0134C38.2835 19.4231 37.7897 18.8724 37.42 18.412C37.3582 18.335 37.2567 18.3034 37.1619 18.3306C37.0895 18.3514 37.0169 18.3718 36.944 18.3918C36.9117 18.401 36.879 18.405 36.8472 18.405L36.8472 17.658C36.8512 17.6568 36.8551 17.6557 36.8591 17.6545C36.8553 17.6488 36.851 17.6426 36.8472 17.637L36.8471 16.4364C36.8471 16.4364 37.2764 16.9629 37.4934 17.2803C37.5548 17.3701 37.6679 17.4093 37.7711 17.375C38.541 17.119 39.2553 16.828 39.9173 16.5105C40.0654 16.4395 40.1025 16.2452 39.9909 16.1246C39.8917 16.0172 39.7938 15.9088 39.6973 15.7993C39.2099 15.2457 38.7992 14.714 38.4563 14.2261ZM45.0887 11.3573C44.6938 11.0447 44.3264 10.7282 43.9882 10.4101C43.8946 10.3221 43.7485 10.3226 43.6556 10.4112C43.3245 10.7267 42.9656 11.0402 42.5807 11.3495C42.4476 11.4564 42.3113 11.5628 42.1719 11.6688C42.0629 11.7516 42.0429 11.9076 42.1274 12.0153C42.5666 12.5748 43.0816 13.1497 43.6828 13.7153C43.7777 13.8045 43.9254 13.8041 44.0203 13.7148C44.6148 13.1554 45.125 12.5869 45.5609 12.0332C45.6461 11.925 45.6255 11.7678 45.5152 11.6853C45.3697 11.5765 45.2273 11.4672 45.0887 11.3573ZM47.4324 15.3407C47.8657 14.8502 48.2366 14.376 48.5515 13.9356C48.6368 13.8163 48.5989 13.65 48.4706 13.5789C47.7811 13.1973 47.1261 12.7998 46.5145 12.3914C46.4083 12.3205 46.266 12.3454 46.1875 12.4461C45.9999 12.6868 45.8048 12.9231 45.6015 13.1544C45.289 13.51 44.9617 13.8503 44.6205 14.1757C44.5137 14.2776 44.5219 14.4507 44.6372 14.5428C45.2359 15.0208 45.9037 15.4824 46.6481 15.9113C46.7454 15.9675 46.8689 15.9486 46.9467 15.8676C47.1192 15.6878 47.2814 15.5116 47.4324 15.3407ZM43.6958 14.9935C43.0775 15.4994 42.4191 15.9616 41.7221 16.3798C41.5822 16.4637 41.5623 16.6592 41.6833 16.7687C42.2682 17.2984 42.9425 17.8414 43.7131 18.3699C43.7962 18.4269 43.9065 18.4269 43.9896 18.3699C44.76 17.8414 45.4344 17.2985 46.0192 16.7689C46.1403 16.6593 46.1204 16.4637 45.9804 16.3797C45.2834 15.9616 44.6252 15.4994 44.0069 14.9936C43.9161 14.9193 43.7865 14.9193 43.6958 14.9935ZM48.2542 19.5006C48.7106 19.0808 49.0903 18.6806 49.4006 18.3221C49.513 18.1923 49.4595 17.9905 49.2977 17.9331C48.5291 17.6604 47.7941 17.3469 47.0935 16.993C47.001 16.9463 46.8899 16.9626 46.8147 17.0339C46.1931 17.6235 45.5291 18.1748 44.8268 18.6839C44.6847 18.7869 44.6939 19.002 44.845 19.0913C45.5461 19.5055 46.3136 19.9012 47.1507 20.2637C47.2331 20.2994 47.3292 20.2869 47.3995 20.2309C47.7179 19.9775 48.0025 19.732 48.2542 19.5006ZM43.9586 22.3785C44.8256 21.9586 45.5855 21.5138 46.2453 21.0725C46.4034 20.9667 46.3848 20.7295 46.2126 20.6485C45.4367 20.2834 44.6922 19.8764 43.9813 19.4298C43.9016 19.3797 43.801 19.3797 43.7213 19.4298C43.0104 19.8764 42.2658 20.2834 41.49 20.6485C41.3178 20.7295 41.2992 20.9667 41.4573 21.0725C42.1171 21.5137 42.8771 21.9586 43.744 22.3785C43.8115 22.4112 43.8911 22.4112 43.9586 22.3785ZM39.4485 19.5006C39.7002 19.732 39.9847 19.9775 40.3031 20.2309C40.3734 20.2869 40.4695 20.2993 40.552 20.2636C41.3892 19.9011 42.1567 19.5054 42.8578 19.0912C43.0088 19.002 43.018 18.787 42.876 18.684C42.1737 18.1748 41.5096 17.6235 40.8879 17.0338C40.8127 16.9625 40.7017 16.9463 40.6092 16.993C39.9086 17.3468 39.1736 17.6604 38.405 17.933C38.243 17.9905 38.1895 18.1924 38.302 18.3224C38.6123 18.6809 38.992 19.081 39.4485 19.5006ZM43.0654 14.5428C43.1808 14.4507 43.189 14.2776 43.0821 14.1757C42.7409 13.8503 42.4136 13.51 42.1011 13.1544C41.8949 12.9199 41.6972 12.6801 41.5072 12.436C41.428 12.3342 41.284 12.3094 41.1772 12.3816C40.5682 12.7934 39.9158 13.1932 39.2292 13.576C39.1013 13.6473 39.0637 13.8132 39.1489 13.9324C39.4643 14.3736 39.8359 14.8491 40.2703 15.3407C40.4211 15.5115 40.5831 15.6875 40.7555 15.8671C40.8336 15.9484 40.9574 15.9673 41.0551 15.911C41.7993 15.4821 42.467 15.0207 43.0654 14.5428Z" fill="#F7B126"/>
<path d="M43.8461 12.4054L43.8516 12.4054C44.0541 12.4054 44.2183 12.2413 44.2183 12.0388C44.2183 11.8363 44.0541 11.6721 43.8516 11.6721L43.8461 11.6721C43.6435 11.6721 43.4794 11.8363 43.4794 12.0388C43.4794 12.2413 43.6436 12.4054 43.8461 12.4054Z" fill="#CE9875"/>
<path d="M46.7739 14.4684L46.7808 14.4684C46.9833 14.4684 47.1475 14.3043 47.1475 14.1018C47.1475 13.8993 46.9833 13.7351 46.7808 13.7351L46.7739 13.7351C46.5714 13.7351 46.4072 13.8993 46.4072 14.1018C46.4072 14.3043 46.5714 14.4684 46.7739 14.4684Z" fill="#CE9875"/>
<path d="M49.6196 15.9816L49.6265 15.9816C49.829 15.9816 49.9932 15.8174 49.9932 15.615C49.9932 15.4125 49.829 15.2483 49.6265 15.2483L49.6196 15.2483C49.4171 15.2483 49.2529 15.4125 49.2529 15.615C49.2529 15.8174 49.4171 15.9816 49.6196 15.9816Z" fill="#CE9875"/>
<path d="M48.7372 11.5297L48.7427 11.5297C48.9453 11.5297 49.1094 11.3655 49.1094 11.163C49.1094 10.9606 48.9453 10.7964 48.7427 10.7964L48.7372 10.7964C48.5346 10.7964 48.3705 10.9606 48.3705 11.163C48.3705 11.3655 48.5346 11.5297 48.7372 11.5297Z" fill="#CE9875"/>
<path d="M43.8959 17.0707L43.9014 17.0707C44.1039 17.0707 44.2681 16.9066 44.2681 16.7041C44.2681 16.5016 44.1039 16.3374 43.9014 16.3374L43.8959 16.3374C43.6933 16.3374 43.5292 16.5016 43.5292 16.7041C43.5292 16.9066 43.6933 17.0707 43.8959 17.0707Z" fill="#CE9875"/>
<path d="M47.2382 18.904L47.2437 18.904C47.4462 18.904 47.6104 18.7398 47.6104 18.5373C47.6104 18.3348 47.4462 18.1707 47.2437 18.1707L47.2382 18.1707C47.0356 18.1707 46.8715 18.3348 46.8715 18.5373C46.8715 18.7398 47.0356 18.904 47.2382 18.904Z" fill="#CE9875"/>
<path d="M47.5179 22.5566L47.5235 22.5566C47.726 22.5566 47.8901 22.3924 47.8901 22.1899C47.8901 21.9874 47.726 21.8232 47.5235 21.8232L47.5179 21.8232C47.3154 21.8232 47.1513 21.9874 47.1513 22.1899C47.1513 22.3924 47.3154 22.5566 47.5179 22.5566Z" fill="#CE9875"/>
<path d="M43.8764 21.2055L43.8833 21.2055C44.0859 21.2055 44.25 21.0413 44.25 20.8388C44.25 20.6363 44.0859 20.4722 43.8833 20.4722L43.8764 20.4722C43.6738 20.4722 43.5097 20.6363 43.5097 20.8388C43.5097 21.0414 43.6738 21.2055 43.8764 21.2055Z" fill="#CE9875"/>
<path d="M41.0736 14.4684L41.0791 14.4684C41.2817 14.4684 41.4458 14.3043 41.4458 14.1018C41.4458 13.8993 41.2817 13.7351 41.0791 13.7351L41.0736 13.7351C40.8711 13.7351 40.7069 13.8993 40.7069 14.1018C40.7069 14.3043 40.8711 14.4684 41.0736 14.4684Z" fill="#CE9875"/>
<path d="M38.2274 15.9816L38.2329 15.9816C38.4355 15.9816 38.5996 15.8174 38.5996 15.615C38.5996 15.4125 38.4355 15.2483 38.2329 15.2483L38.2274 15.2483C38.0249 15.2483 37.8608 15.4125 37.8608 15.615C37.8608 15.8174 38.0249 15.9816 38.2274 15.9816Z" fill="#CE9875"/>
<path d="M39.1097 11.5297L39.1153 11.5297C39.3178 11.5297 39.4819 11.3655 39.4819 11.163C39.4819 10.9606 39.3178 10.7964 39.1153 10.7964L39.1097 10.7964C38.9072 10.7964 38.7431 10.9606 38.7431 11.163C38.7431 11.3655 38.9072 11.5297 39.1097 11.5297Z" fill="#CE9875"/>
<path d="M40.6092 18.904L40.6148 18.904C40.8173 18.904 40.9814 18.7398 40.9814 18.5373C40.9814 18.3348 40.8173 18.1707 40.6148 18.1707L40.6092 18.1707C40.4067 18.1707 40.2426 18.3348 40.2426 18.5373C40.2426 18.7398 40.4067 18.904 40.6092 18.904Z" fill="#CE9875"/>
<path d="M40.3295 22.5566L40.335 22.5566C40.5375 22.5566 40.7017 22.3924 40.7017 22.1899C40.7017 21.9874 40.5375 21.8232 40.335 21.8232L40.3295 21.8232C40.1269 21.8232 39.9628 21.9874 39.9628 22.1899C39.9628 22.3924 40.127 22.5566 40.3295 22.5566Z" fill="#CE9875"/>
<path d="M45.9647 9.80876L45.9703 9.80876C46.1728 9.80876 46.3369 9.64459 46.3369 9.4421C46.3369 9.23961 46.1728 9.07544 45.9703 9.07544L45.9647 9.07544C45.7621 9.07544 45.598 9.23961 45.598 9.4421C45.598 9.64459 45.7621 9.80876 45.9647 9.80876Z" fill="#CE9875"/>
<path d="M41.7274 9.80876L41.7329 9.80876C41.9355 9.80876 42.0996 9.64459 42.0996 9.4421C42.0996 9.23961 41.9355 9.07544 41.7329 9.07544L41.7274 9.07544C41.5249 9.07544 41.3608 9.23961 41.3608 9.4421C41.3608 9.64459 41.5249 9.80876 41.7274 9.80876Z" fill="#CE9875"/>
<path d="M8.68043 8.38563C10.3338 8.43721 11.1735 9.84268 11.1993 12.602C11.1993 13.8141 10.8376 14.562 10.1142 14.8456C9.59755 15.0262 8.82252 15.0906 7.78913 15.0391L5.30901 14.923C5.48985 10.6421 6.61366 8.463 8.68043 8.38563ZM15.927 20.6094L14.997 20.2999C14.2736 21.873 13.1369 22.9432 11.5868 23.5106C10.9668 23.7427 10.3338 23.8587 9.68797 23.8587C7.62121 23.8587 6.29073 22.5435 5.69653 19.9131C5.46402 18.83 5.33485 17.5405 5.30901 16.0448L8.87419 16.1609C13.0336 16.2898 15.4491 15.6322 16.1208 14.188C16.2758 13.827 16.3533 13.4273 16.3533 12.9889C16.3533 10.7969 15.2295 9.19797 12.9819 8.19222C11.716 7.65066 10.2822 7.37988 8.68043 7.37988C5.76112 7.37988 3.48767 8.37274 1.86009 10.3584C0.62003 11.9058 0 13.827 0 16.1222C0 19.8615 1.40799 22.4661 4.22396 23.9361C5.56736 24.6324 7.0916 24.9805 8.79668 24.9805C11.8193 24.9805 13.9894 23.9232 15.307 21.8085C15.5653 21.4217 15.772 21.022 15.927 20.6094Z" fill="white"/>
<path d="M17.4771 24.5937H23.3286V23.5879H20.616L25.2662 17.7855L29.1414 23.5879H27.0101V24.5937H35.9618C35.9618 24.0005 35.7551 23.6782 35.3417 23.6266C35.2384 23.6008 35.1221 23.5879 34.993 23.5879H34.2179L28.5602 15.0777L32.3966 10.0877C32.9133 9.39138 33.5721 9.00456 34.3729 8.92719C34.7605 8.87561 34.993 8.72088 35.0705 8.463C35.0963 8.30827 35.1092 8.14064 35.1092 7.96012H29.3739V8.96587H31.8928L27.9014 14.1107L24.4912 8.96587H26.6226V7.96012H17.6321V8.96587H19.4147L24.685 16.8571L20.1122 22.4661C19.5697 23.1108 18.9109 23.4977 18.1359 23.6266C17.7742 23.6524 17.5675 23.8071 17.5159 24.0908C17.49 24.2455 17.4771 24.4132 17.4771 24.5937Z" fill="white"/>
<path d="M51.6694 9.15345H54.334V18.809C54.334 22.5425 55.8786 24.5894 58.9679 24.9499C59.2768 24.9757 59.5858 24.9885 59.8947 24.9885C61.877 24.9885 63.2414 24.3448 63.988 23.0574C64.3484 22.4137 64.6316 21.564 64.8376 20.5084L63.7949 20.3539C63.2801 22.4395 62.5206 23.5853 61.5166 23.7913C61.3621 23.817 61.2077 23.8299 61.0532 23.8299C60.1007 23.8299 59.5214 23.1604 59.3155 21.8215C59.264 21.5125 59.2382 21.1907 59.2382 20.856V9.15345H64.3356V8.14928H59.2382V3.66911L54.334 4.48017V8.14928H51.6694V9.15345Z" fill="white"/>
<path d="M74.5689 23.5595H73.1401V7.95617H65.9961V8.96034H68.2358V21.5512C68.2358 22.6841 67.7853 23.3278 66.8843 23.4823C66.6268 23.5338 66.3308 23.5595 65.9961 23.5595V24.5637H75.4957C75.4957 23.9715 75.3283 23.6496 74.9937 23.5981C74.865 23.5724 74.7234 23.5595 74.5689 23.5595ZM73.4876 2.89666C73.4876 1.76375 72.9856 0.926932 71.9816 0.386222C71.5439 0.128741 71.0806 0 70.5914 0C69.4844 0 68.6477 0.502088 68.0814 1.50626C67.8497 1.94398 67.7338 2.40745 67.7338 2.89666C67.7338 4.02958 68.2358 4.85352 69.2398 5.36848C69.6775 5.60021 70.128 5.71608 70.5914 5.71608C71.7242 5.71608 72.5608 5.23974 73.1015 4.28706C73.3589 3.84934 73.4876 3.38588 73.4876 2.89666Z" fill="white"/>
<path d="M77.4265 16.2213C77.4265 19.9805 78.8553 22.5682 81.7129 23.9844C83.0516 24.6281 84.5834 24.9499 86.3082 24.9499C88.9856 24.9499 91.0452 24.1389 92.4868 22.5167C92.976 21.9503 93.3493 21.3323 93.6067 20.6629L92.6027 20.3925C91.8819 21.9374 90.659 22.9802 88.9342 23.5209C88.2648 23.7269 87.5955 23.8299 86.9261 23.8299C85.1498 23.8299 83.9655 23.0317 83.3734 21.4353C82.9358 20.2509 82.7169 18.5773 82.7169 16.4144C82.7169 12.0887 83.3991 9.51393 84.7636 8.68999C85.1755 8.45825 85.6646 8.34239 86.231 8.34239C87.3638 8.34239 88.0588 8.87022 88.3163 9.9259C88.3678 10.1319 88.4321 10.4795 88.5094 10.9687C88.6638 12.1531 88.9728 12.9127 89.4362 13.2474C89.7966 13.5049 90.2857 13.6336 90.9036 13.6336C92.2165 13.6336 93.0275 13.1444 93.3364 12.166C93.3879 11.96 93.4136 11.754 93.4136 11.548C93.4136 10.4151 92.7314 9.42381 91.367 8.57412C90.0283 7.77593 88.3549 7.37683 86.3469 7.37683C83.618 7.37683 81.404 8.26514 79.7049 10.0418C78.186 11.6381 77.4265 13.698 77.4265 16.2213Z" fill="white"/>
</svg>
