<svg width="976" height="258" viewBox="0 0 976 258" fill="none" xmlns="http://www.w3.org/2000/svg">
<path fill-rule="evenodd" clip-rule="evenodd" d="M435.583 65.7295C430.052 46.3207 420.193 27.5395 405.97 9.63618C405.364 8.87367 406.092 7.77545 407.029 8.04099C419.564 11.5978 431.093 17.3227 441.605 25.2173C447.228 29.4411 452.564 34.2929 457.601 39.7728C465.036 47.8209 471.828 57.239 477.992 68.0132L478.677 69.1976C481.902 74.9196 484.956 81.0276 487.824 87.5058C485.241 87.0634 482.602 86.8353 479.89 86.8353L439.878 86.8353C439.136 80.9136 438.023 75.0341 436.525 69.1976C436.226 68.0414 435.912 66.8852 435.583 65.7295Z" fill="#CCF49F"/>
<path fill-rule="evenodd" clip-rule="evenodd" d="M416.963 89.0747C414.843 71.303 407.536 54.1656 394.968 38.0807C394.366 37.3109 395.102 36.2122 396.037 36.4928C411.578 41.1507 424.76 50.8807 435.584 65.7295C435.912 66.8852 436.226 68.0414 436.526 69.1971C438.024 75.0337 439.137 80.9126 439.879 86.8349C431.603 86.8344 424.954 86.5201 416.963 89.0747Z" fill="#CCF49F"/>
<path fill-rule="evenodd" clip-rule="evenodd" d="M520.382 37.8923C507.395 54.4479 499.996 72.1198 498.084 90.4445C494.83 89.1031 491.391 88.1043 487.824 87.505C484.956 81.0263 481.902 74.9189 478.677 69.1969C478.777 68.8261 478.863 68.4548 478.963 68.084C486.903 50.9155 501.869 40.5541 519.363 36.2903C520.293 36.0638 520.967 37.1469 520.382 37.8923Z" fill="#CCF49F"/>
<path fill-rule="evenodd" clip-rule="evenodd" d="M509.056 9.84859C494.844 27.786 480.631 40.2435 473.825 61.0774C468.802 53.1575 463.394 46.0512 457.601 39.7723C472.075 24.063 488.935 13.4994 508.156 8.04486C509.1 7.77737 509.83 8.88485 509.216 9.64931C509.163 9.71606 509.11 9.78233 509.056 9.84859Z" fill="#BEE9AC"/>
<path fill-rule="evenodd" clip-rule="evenodd" d="M464.122 33.1945C468.974 38.6169 473.54 44.6249 477.85 51.2172C476.323 54.3135 474.967 57.5814 473.826 61.0777C468.803 53.1578 463.394 46.0515 457.601 39.7726C459.728 37.4612 461.897 35.2779 464.122 33.1945Z" fill="#A4DCB1"/>
<path fill-rule="evenodd" clip-rule="evenodd" d="M516.178 43.5685C504.177 49.0766 494.245 58.1381 488.281 71.038L487.995 72.1509C491.149 77.7447 494.117 83.6807 496.942 89.9884C494.017 88.8755 490.977 88.0336 487.824 87.5054C484.956 81.0267 481.902 74.9193 478.677 69.1973L478.963 68.0844C486.903 50.9169 501.868 40.555 519.362 36.2912C520.286 36.0656 520.97 37.1439 520.383 37.8928C518.913 39.7696 517.516 41.6581 516.178 43.5685Z" fill="#B3E59F"/>
<path fill-rule="evenodd" clip-rule="evenodd" d="M452.292 69.1971C453.776 74.962 454.889 80.7844 455.617 86.6492C455.631 86.7062 455.631 86.7778 455.645 86.8349L445.757 86.8349L439.878 86.8349C439.877 86.8339 439.876 86.8334 439.875 86.8329C439.149 80.8999 438.021 75.0263 436.525 69.1976C436.225 68.0419 435.911 66.8857 435.583 65.73C430.051 46.3212 420.193 27.5399 405.969 9.63668C405.363 8.87271 406.094 7.77498 407.033 8.04052C413.746 9.94169 420.168 12.4709 426.308 15.6282C438.165 31.81 447.283 49.7615 452.292 69.1971Z" fill="#B3E59F"/>
<path fill-rule="evenodd" clip-rule="evenodd" d="M405.517 40.1009C417.161 54.9561 424.31 70.7097 427.021 87.0348C427.021 87.0636 427.021 87.0777 427.035 87.0919C426.008 87.1917 424.995 87.3057 423.967 87.4485C422.326 87.6911 420.671 88.0337 418.958 88.4902L418.93 88.4902C418.915 88.5043 418.901 88.5043 418.887 88.5043L418.873 88.5043C418.344 88.6471 417.831 88.804 417.303 88.9609C417.189 89.0037 417.074 89.032 416.96 89.0749C414.841 71.3041 407.535 54.1673 394.968 38.0828C394.366 37.3125 395.102 36.2133 396.039 36.4945C399.303 37.4748 402.465 38.6787 405.517 40.1009Z" fill="#B3E59F"/>
<path fill-rule="evenodd" clip-rule="evenodd" d="M385.47 143.415L385.47 190.364C385.47 200.872 387.917 210.835 392.277 219.716C393.41 222.022 394.668 224.263 396.053 226.412C401.324 234.629 408.333 241.632 416.554 246.893C419.172 248.575 421.916 250.075 424.771 251.379L424.776 251.379C433.239 255.266 442.639 257.431 452.522 257.431L462.682 257.431C472.565 257.431 481.965 255.266 490.429 251.379C493.283 250.075 496.027 248.575 498.65 246.893C506.872 241.632 513.88 234.629 519.151 226.412C520.536 224.263 521.794 222.022 522.927 219.716C527.287 210.835 529.734 200.871 529.734 190.364L529.734 143.415C529.734 136.478 528.667 129.782 526.694 123.478L526.694 123.473L526.674 123.418C525.747 120.477 524.624 117.623 523.316 114.874L523.296 114.818C518.709 105.162 511.872 96.7535 503.479 90.284C501.475 88.7332 499.376 87.2934 497.196 85.9793L497.165 85.9594C491.245 82.3846 484.735 79.696 477.827 78.0852C475.325 77.501 472.772 77.0582 470.18 76.7663C467.718 76.4896 465.215 76.3483 462.683 76.3483L452.523 76.3483C449.734 76.3483 446.98 76.5193 444.282 76.8569C441.694 77.179 439.151 77.6472 436.659 78.2567C430.013 79.8831 423.755 82.5112 418.04 85.9598C415.85 87.2841 413.741 88.7288 411.727 90.2845C403.329 96.7539 396.497 105.162 391.91 114.823C390.586 117.607 389.448 120.492 388.512 123.468C388.517 123.468 388.517 123.468 388.512 123.473C386.537 129.776 385.47 136.478 385.47 143.415Z" fill="#FDE588"/>
<path fill-rule="evenodd" clip-rule="evenodd" d="M407.958 142.258L407.958 180.787L407.958 189.22C407.958 194.143 408.486 198.952 409.513 203.576C413.751 222.855 426.436 239.336 443.831 248.541C453.149 253.478 463.765 256.275 475.01 256.275C471.014 257.031 466.891 257.431 462.681 257.431C456.003 257.431 449.282 257.687 442.661 256.703C410.411 251.894 385.469 223.896 385.469 190.362L385.469 165.047L385.469 155.001L385.469 143.414C385.469 118.941 398.739 97.4218 418.46 85.7064C421.428 83.9367 424.553 82.3956 427.792 81.0972C431.802 79.4991 436.011 78.2717 440.35 77.4585C444.302 76.7306 448.369 76.3457 452.522 76.3457L455.904 76.3457L462.681 76.3457C436.597 81.2404 415.592 101.418 409.642 127.332C408.528 132.141 407.958 137.135 407.958 142.258Z" fill="#FDD76F"/>
<path d="M402.042 146.507C401.326 145.489 399.979 145.158 398.868 145.72C395.002 147.677 391.057 149.58 387.035 151.415C386.526 151.647 385.998 151.758 385.469 151.758L385.469 143.828C388.437 142.454 391.354 141.05 394.216 139.618C395.527 138.962 395.998 137.321 395.244 136.063C392.034 130.71 389.847 126.357 388.509 123.473C388.509 123.471 388.509 123.47 388.509 123.469C389.446 120.493 390.584 117.608 391.908 114.823C392.795 115.216 393.535 115.951 393.907 116.928C393.95 117.045 396.74 124.227 403.381 134.839C411.268 130.558 418.674 126.077 425.512 121.462C426.653 120.692 426.979 119.148 426.22 117.998C420.532 109.384 415.752 100.294 411.936 90.8078C411.865 90.6266 411.79 90.4453 411.724 90.2841C413.738 88.7283 415.848 87.2832 418.038 85.9594C418.133 86.1056 418.219 86.2615 418.295 86.4276C418.456 86.7853 418.652 87.2632 418.944 87.9936C421.484 94.3076 425.722 103.281 432.345 113.324C433.153 114.549 434.837 114.828 436.003 113.937C441.2 109.97 445.964 105.935 450.25 101.873C451.23 100.943 451.297 99.4021 450.398 98.3925C444.604 91.8875 440.069 85.4049 436.964 79.1323C436.823 78.8454 436.722 78.5535 436.657 78.2563C439.149 77.6473 441.691 77.179 444.28 76.8565C446.974 82.0241 450.7 87.3037 455.338 92.6047C456.347 93.758 458.155 93.7526 459.157 92.593C463.747 87.2822 467.462 81.9773 470.178 76.7659C472.771 77.0577 475.323 77.5011 477.825 78.0848C477.76 78.3971 477.654 78.7041 477.508 79.0061C474.381 85.3236 469.868 91.8344 464.138 98.3502C463.245 99.3665 463.321 100.909 464.309 101.833C468.734 105.973 473.677 110.095 479.083 114.155C480.247 115.029 481.914 114.748 482.717 113.534C489.42 103.406 493.7 94.3505 496.257 87.9926C496.549 87.2627 496.746 86.7843 496.907 86.4267C496.982 86.2605 497.068 86.1046 497.164 85.9584L497.194 85.9784L503.477 90.2831C503.412 90.4444 503.336 90.6256 503.266 90.8069C499.432 100.339 494.622 109.471 488.898 118.121C488.134 119.276 488.466 120.829 489.618 121.596C495.863 125.754 502.581 129.814 509.706 133.727C510.887 134.376 512.37 133.966 513.069 132.813C513.816 131.582 514.507 130.403 515.143 129.287C519.407 121.796 521.26 117.023 521.295 116.927C521.668 115.945 522.403 115.21 523.294 114.818L523.314 114.873L526.672 123.417L526.693 123.473L526.693 123.478C525.352 126.364 523.161 130.721 519.947 136.08C519.196 137.333 519.666 138.97 520.974 139.622C523.841 141.05 526.761 142.453 529.733 143.828L529.733 151.757C529.205 151.757 528.676 151.647 528.167 151.415C524.147 149.579 520.203 147.681 516.337 145.733C515.22 145.17 513.865 145.504 513.146 146.527C509.618 151.546 505.393 157.015 500.381 162.708C499.388 163.836 498.379 164.953 497.357 166.059C496.209 167.3 496.59 169.301 498.116 170.032C504.934 173.302 512.291 176.299 520.22 178.936C521.281 179.289 522.444 178.885 523.075 177.962C525.3 174.708 529.733 169.102 529.733 169.102L529.733 181.633C529.694 181.691 529.65 181.756 529.61 181.814C529.652 181.826 529.692 181.838 529.733 181.85L529.733 189.543C529.406 189.543 529.069 189.502 528.737 189.407C527.439 189.051 526.152 188.682 524.871 188.306C520.968 193.297 515.558 199.459 508.361 206.107C507.087 207.284 505.732 208.496 504.298 209.734C502.838 210.994 503.26 213.363 505.075 214.014C510.52 215.967 516.212 217.779 522.171 219.414C522.438 219.489 522.689 219.585 522.926 219.716C521.793 222.022 520.535 224.262 519.15 226.412C510.976 224.133 503.036 221.473 495.351 218.443C494.547 218.126 493.644 218.242 492.948 218.752C486.722 223.303 479.513 227.976 471.257 232.491C469.386 233.514 469.552 236.259 471.537 237.039C479.163 240.035 487.433 242.796 496.389 245.191C497.375 245.452 498.166 246.082 498.65 246.892C496.026 248.574 493.283 250.075 490.428 251.378C478.684 248.028 468.111 244.068 458.625 239.792C457.972 239.497 457.232 239.497 456.578 239.792C447.092 244.068 436.519 248.028 424.775 251.378L424.77 251.378C421.916 250.075 419.172 248.574 416.554 246.892C417.037 246.082 417.827 245.453 418.815 245.191C427.771 242.795 436.042 240.034 443.669 237.037C445.653 236.258 445.819 233.515 443.949 232.492C435.691 227.976 428.48 223.302 422.253 218.75C421.558 218.241 420.657 218.125 419.855 218.441C412.169 221.472 404.227 224.133 396.053 226.411C394.668 224.262 393.409 222.021 392.277 219.715C392.513 219.584 392.765 219.489 393.032 219.413C398.991 217.779 404.682 215.967 410.127 214.014C411.942 213.363 412.365 210.994 410.905 209.733C409.471 208.495 408.116 207.284 406.842 206.106C400.262 200.028 395.176 194.357 391.369 189.615C390.733 188.822 389.688 188.496 388.711 188.777C387.966 188.991 387.218 189.201 386.467 189.407C386.135 189.502 385.797 189.543 385.47 189.543L385.47 181.85C385.511 181.838 385.552 181.826 385.593 181.814C385.554 181.755 385.509 181.691 385.47 181.633L385.469 169.27C385.469 169.27 389.891 174.691 392.125 177.961C392.757 178.885 393.922 179.289 394.985 178.936C402.914 176.299 410.269 173.302 417.087 170.032C418.613 169.301 418.994 167.301 417.846 166.058C416.824 164.953 415.816 163.836 414.822 162.708C409.803 157.007 405.573 151.531 402.042 146.507ZM470.344 116.963C466.278 113.743 462.494 110.484 459.011 107.208C458.048 106.302 456.543 106.307 455.586 107.219C452.176 110.469 448.481 113.697 444.516 116.882C443.146 117.983 441.742 119.079 440.306 120.17C439.184 121.023 438.978 122.63 439.848 123.739C444.371 129.501 449.675 135.422 455.866 141.246C456.843 142.165 458.365 142.161 459.342 141.241C465.464 135.48 470.718 129.626 475.208 123.924C476.085 122.81 475.873 121.191 474.737 120.341C473.238 119.22 471.773 118.094 470.344 116.963ZM494.481 157.986C498.944 152.935 502.763 148.05 506.006 143.515C506.884 142.286 506.494 140.574 505.173 139.842C498.073 135.912 491.327 131.818 485.028 127.612C483.935 126.882 482.469 127.139 481.661 128.175C479.729 130.654 477.72 133.088 475.626 135.47C472.407 139.132 469.037 142.636 465.523 145.988C464.423 147.038 464.507 148.819 465.695 149.768C471.86 154.691 478.738 159.444 486.404 163.862C487.406 164.44 488.678 164.246 489.479 163.411C491.255 161.56 492.926 159.746 494.481 157.986ZM456 154.41C449.632 159.619 442.853 164.38 435.674 168.686C434.233 169.551 434.029 171.564 435.274 172.692C441.298 178.147 448.243 183.739 456.178 189.182C457.034 189.768 458.17 189.768 459.026 189.182C466.96 183.739 473.905 178.148 479.928 172.694C481.174 171.565 480.97 169.55 479.528 168.685C472.35 164.38 465.571 159.619 459.203 154.41C458.268 153.645 456.934 153.645 456 154.41ZM502.944 200.826C507.645 196.503 511.555 192.382 514.751 188.689C515.908 187.352 515.357 185.274 513.691 184.683C505.776 181.875 498.206 178.646 490.991 175.002C490.039 174.52 488.894 174.688 488.12 175.423C481.718 181.495 474.88 187.172 467.648 192.415C466.184 193.476 466.279 195.691 467.835 196.611C475.055 200.876 482.959 204.951 491.58 208.684C492.429 209.052 493.419 208.923 494.143 208.347C497.422 205.737 500.352 203.209 502.944 200.826ZM458.706 230.464C467.635 226.14 475.461 221.558 482.256 217.014C483.884 215.925 483.692 213.482 481.92 212.647C473.929 208.888 466.261 204.696 458.94 200.096C458.12 199.581 457.083 199.581 456.263 200.096C448.941 204.696 441.273 208.888 433.283 212.647C431.511 213.482 431.319 215.925 432.947 217.014C439.742 221.558 447.568 226.139 456.496 230.464C457.192 230.801 458.012 230.801 458.706 230.464ZM412.259 200.826C414.851 203.209 417.781 205.737 421.061 208.347C421.785 208.923 422.775 209.052 423.624 208.684C432.246 204.95 440.149 200.876 447.37 196.61C448.925 195.691 449.02 193.476 447.558 192.416C440.325 187.173 433.486 181.495 427.083 175.422C426.309 174.688 425.165 174.52 424.213 175.001C416.998 178.645 409.429 181.875 401.513 184.682C399.845 185.274 399.294 187.354 400.452 188.692C403.648 192.384 407.558 196.505 412.259 200.826ZM449.508 149.768C450.696 148.819 450.781 147.038 449.68 145.988C446.166 142.636 442.795 139.132 439.577 135.47C437.454 133.055 435.417 130.586 433.461 128.071C432.646 127.023 431.162 126.767 430.063 127.511C423.791 131.752 417.072 135.87 410.002 139.811C408.684 140.546 408.297 142.255 409.174 143.482C412.422 148.026 416.249 152.923 420.723 157.986C422.276 159.744 423.945 161.557 425.72 163.407C426.523 164.244 427.799 164.439 428.805 163.859C436.469 159.442 443.345 154.69 449.508 149.768Z" fill="#F7B126"/>
<path d="M457.544 127.755L457.601 127.755C459.687 127.755 461.377 126.065 461.377 123.979C461.377 121.894 459.687 120.203 457.601 120.203L457.544 120.203C455.458 120.203 453.768 121.894 453.768 123.979C453.768 126.065 455.459 127.755 457.544 127.755Z" fill="#CE9875"/>
<path d="M487.696 149.003L487.767 149.003C489.853 149.003 491.543 147.312 491.543 145.227C491.543 143.141 489.853 141.451 487.767 141.451L487.696 141.451C485.61 141.451 483.92 143.141 483.92 145.227C483.92 147.312 485.61 149.003 487.696 149.003Z" fill="#CE9875"/>
<path d="M517.005 164.586L517.077 164.586C519.162 164.586 520.853 162.895 520.853 160.81C520.853 158.725 519.162 157.034 517.077 157.034L517.005 157.034C514.92 157.034 513.229 158.725 513.229 160.81C513.229 162.895 514.92 164.586 517.005 164.586Z" fill="#CE9875"/>
<path d="M507.916 118.737L507.973 118.737C510.059 118.737 511.749 117.046 511.749 114.961C511.749 112.875 510.059 111.185 507.973 111.185L507.916 111.185C505.83 111.185 504.14 112.875 504.14 114.961C504.14 117.046 505.83 118.737 507.916 118.737Z" fill="#CE9875"/>
<path d="M458.059 175.802L458.116 175.802C460.201 175.802 461.892 174.111 461.892 172.026C461.892 169.94 460.201 168.25 458.116 168.25L458.059 168.25C455.973 168.25 454.283 169.94 454.283 172.026C454.283 174.111 455.973 175.802 458.059 175.802Z" fill="#CE9875"/>
<path d="M492.477 194.68L492.534 194.68C494.619 194.68 496.31 192.99 496.31 190.904C496.31 188.819 494.619 187.128 492.534 187.128L492.477 187.128C490.391 187.128 488.7 188.819 488.7 190.904C488.7 192.99 490.391 194.68 492.477 194.68Z" fill="#CE9875"/>
<path d="M495.359 232.296L495.416 232.296C497.502 232.296 499.192 230.606 499.192 228.52C499.192 226.435 497.502 224.744 495.416 224.744L495.359 224.744C493.274 224.744 491.583 226.435 491.583 228.52C491.583 230.606 493.274 232.296 495.359 232.296Z" fill="#CE9875"/>
<path d="M457.859 218.383L457.931 218.383C460.017 218.383 461.707 216.692 461.707 214.607C461.707 212.522 460.017 210.831 457.931 210.831L457.859 210.831C455.774 210.831 454.083 212.522 454.083 214.607C454.083 216.693 455.774 218.383 457.859 218.383Z" fill="#CE9875"/>
<path d="M428.991 149.003L429.048 149.003C431.134 149.003 432.824 147.312 432.824 145.227C432.824 143.141 431.134 141.451 429.048 141.451L428.991 141.451C426.905 141.451 425.215 143.141 425.215 145.227C425.215 147.312 426.906 149.003 428.991 149.003Z" fill="#CE9875"/>
<path d="M399.681 164.586L399.738 164.586C401.823 164.586 403.514 162.895 403.514 160.81C403.514 158.725 401.823 157.034 399.738 157.034L399.681 157.034C397.595 157.034 395.905 158.725 395.905 160.81C395.905 162.895 397.595 164.586 399.681 164.586Z" fill="#CE9875"/>
<path d="M408.77 118.737L408.827 118.737C410.913 118.737 412.604 117.046 412.604 114.961C412.604 112.875 410.913 111.185 408.827 111.185L408.77 111.185C406.685 111.185 404.994 112.875 404.994 114.961C404.994 117.046 406.685 118.737 408.77 118.737Z" fill="#CE9875"/>
<path d="M424.212 194.68L424.269 194.68C426.355 194.68 428.045 192.99 428.045 190.904C428.045 188.819 426.355 187.128 424.269 187.128L424.212 187.128C422.126 187.128 420.436 188.819 420.436 190.904C420.436 192.99 422.126 194.68 424.212 194.68Z" fill="#CE9875"/>
<path d="M421.329 232.296L421.386 232.296C423.472 232.296 425.162 230.606 425.162 228.52C425.162 226.435 423.472 224.744 421.386 224.744L421.329 224.744C419.243 224.744 417.553 226.435 417.553 228.52C417.553 230.606 419.244 232.296 421.329 232.296Z" fill="#CE9875"/>
<path d="M479.364 101.014L479.421 101.014C481.507 101.014 483.197 99.3229 483.197 97.2376C483.197 95.1522 481.507 93.4615 479.421 93.4615L479.364 93.4615C477.278 93.4615 475.588 95.1522 475.588 97.2376C475.588 99.3229 477.278 101.014 479.364 101.014Z" fill="#CE9875"/>
<path d="M435.726 101.014L435.783 101.014C437.868 101.014 439.559 99.3229 439.559 97.2376C439.559 95.1522 437.868 93.4615 435.783 93.4615L435.726 93.4615C433.64 93.4615 431.95 95.1522 431.95 97.2376C431.95 99.3229 433.64 101.014 435.726 101.014Z" fill="#CE9875"/>
<path d="M89.3947 86.3576C106.422 86.8888 115.069 101.363 115.335 129.78C115.335 142.262 111.61 149.964 104.161 152.886C98.8397 154.745 90.858 155.409 80.2158 154.877L54.6745 153.682C56.5368 109.596 68.1103 87.1544 89.3947 86.3576ZM164.023 212.243L154.445 209.056C146.996 225.256 135.289 236.278 119.326 242.121C112.941 244.511 106.422 245.706 99.7709 245.706C78.4865 245.706 64.7846 232.161 58.6653 205.072C56.2708 193.918 54.9405 180.639 54.6745 165.235L91.3902 166.43C134.225 167.758 159.101 160.986 166.019 146.113C167.615 142.395 168.413 138.279 168.413 133.764C168.413 111.189 156.84 94.7234 133.693 84.3658C120.656 78.7886 105.89 76 89.3947 76C59.3304 76 35.9175 86.2249 19.156 106.675C6.38534 122.609 0 142.395 0 166.032C0 204.541 14.5 231.365 43.5001 246.503C57.335 253.673 73.0323 257.259 90.592 257.259C121.721 257.259 144.069 246.37 157.638 224.592C160.299 220.609 162.427 216.492 164.023 212.243Z" fill="#00459D"/>
<path d="M179.987 253.275H240.248V242.917H212.312L260.203 183.162L300.111 242.917H278.161V253.275H370.35C370.35 247.167 368.221 243.847 363.964 243.316C362.9 243.05 361.703 242.917 360.373 242.917H352.391L294.125 155.276L333.634 103.886C338.955 96.7153 345.739 92.7316 353.987 91.9348C357.978 91.4037 360.373 89.8102 361.171 87.1544C361.437 85.5609 361.57 83.8346 361.57 81.9756H302.505V92.3332H328.446L287.34 145.317L252.221 92.3332H274.17V81.9756H181.583V92.3332H199.941L254.216 173.601L207.124 231.365C201.537 238.004 194.753 241.988 186.771 243.316C183.046 243.581 180.918 245.175 180.386 248.096C180.12 249.69 179.987 251.416 179.987 253.275Z" fill="#00459D"/>
<path d="M544.112 94.2662H571.553V193.703C571.553 232.152 587.46 253.233 619.275 256.945C622.457 257.21 625.638 257.343 628.82 257.343C649.234 257.343 663.286 250.714 670.974 237.455C674.686 230.826 677.603 222.076 679.724 211.204L668.986 209.613C663.684 231.091 655.862 242.891 645.522 245.012C643.932 245.278 642.341 245.41 640.75 245.41C630.941 245.41 624.975 238.516 622.854 224.727C622.324 221.545 622.059 218.231 622.059 214.784V94.2662H674.554V83.9247H622.059V37.786L571.553 46.1387V83.9247H544.112V94.2662Z" fill="#00459D"/>
<path d="M779.941 242.626H765.226V81.936H691.654V92.2774H714.72V221.943C714.72 233.61 710.08 240.24 700.801 241.83C698.15 242.361 695.101 242.626 691.654 242.626V252.967H789.485C789.485 246.869 787.762 243.554 784.315 243.024C782.99 242.759 781.531 242.626 779.941 242.626ZM768.805 29.8311C768.805 18.1638 763.636 9.54594 753.296 3.97748C748.789 1.32582 744.016 0 738.979 0C727.579 0 718.962 5.17072 713.129 15.5122C710.743 20.02 709.55 24.7929 709.55 29.8311C709.55 41.4983 714.72 49.9836 725.06 55.2869C729.567 57.6734 734.207 58.8666 738.979 58.8666C750.644 58.8666 759.261 53.9611 764.829 44.15C767.48 39.6422 768.805 34.8692 768.805 29.8311Z" fill="#00459D"/>
<path d="M809.37 167.054C809.37 205.768 824.084 232.417 853.513 247.001C867.299 253.63 883.074 256.945 900.838 256.945C928.411 256.945 949.621 248.592 964.467 231.887C969.505 226.053 973.349 219.689 976 212.795L965.661 210.011C958.237 225.921 945.644 236.66 927.88 242.228C920.987 244.35 914.094 245.41 907.201 245.41C888.907 245.41 876.711 237.19 870.613 220.75C866.106 208.552 863.853 191.317 863.853 169.043C863.853 124.495 870.878 97.9785 884.93 89.4932C889.172 87.1067 894.209 85.9135 900.042 85.9135C911.708 85.9135 918.866 91.3493 921.517 102.221C922.048 104.342 922.71 107.922 923.506 112.96C925.096 125.158 928.278 132.98 933.05 136.427C936.762 139.079 941.799 140.405 948.162 140.405C961.684 140.405 970.035 135.367 973.217 125.29C973.747 123.169 974.012 121.048 974.012 118.927C974.012 107.259 966.986 97.0504 952.935 88.2999C939.148 80.0798 921.915 75.9698 901.235 75.9698C873.132 75.9698 850.331 85.118 832.833 103.414C817.191 119.855 809.37 141.068 809.37 167.054Z" fill="#00459D"/>
</svg>
